<svg width="1194" height="834" viewBox="0 0 1194 834" fill="none" xmlns="http://www.w3.org/2000/svg">
<g clip-path="url(#clip0_11_11)">
<rect width="1194" height="834" fill="#D7C1E0"/>
<path d="M148.493 211.348C148.457 200.504 149.145 190.073 171.556 187.921C147.919 187.843 149.836 177.428 148.851 164.34C148.054 177.405 146.277 186.767 127.853 187.144C146.867 189.657 146.285 195.783 148.493 211.348Z" fill="#455A64"/>
<path d="M91.8716 151.434C91.6957 137.964 92.2356 125.007 113.904 121.977C91.0104 122.265 92.7436 109.308 91.6288 93.081C91.0095 109.309 89.4353 120.951 71.5848 121.723C90.0401 124.45 89.5156 132.193 91.8716 151.434Z" fill="#876A96"/>
<path d="M238.15 534.198C237.99 520.556 238.53 507.414 260.421 504.355C237.241 504.629 238.99 491.501 237.843 475.073C237.24 491.515 235.618 503.3 217.545 504.087C236.318 506.9 235.826 514.685 238.15 534.198Z" fill="#EBEBEB"/>
<path d="M68.5879 405.191C68.4439 393.878 68.9045 382.993 87.0891 380.463C67.8703 380.693 69.3332 369.808 68.3776 356.18C67.8695 369.794 66.5337 379.579 51.5628 380.223C67.059 382.536 66.6458 388.978 68.5879 405.191Z" fill="#876A96"/>
<path d="M107.62 495.425C107.508 485.84 107.89 476.612 123.306 474.468C107.014 474.655 108.255 465.442 107.395 453.885C106.95 465.442 105.805 473.727 93.0774 474.271C106.314 476.227 105.981 481.698 107.62 495.425Z" fill="#E0E0E0"/>
<path d="M154.997 307.587C154.885 298.002 155.266 288.774 170.682 286.616C154.391 286.817 155.631 277.589 154.771 266.047C154.327 277.589 153.182 285.889 140.454 286.432C153.707 288.331 153.357 293.802 154.997 307.587Z" fill="#E0E0E0"/>
<path d="M409.717 290.519C407.351 280.398 405.568 270.543 420.48 264.849C404.243 268.666 403.313 258.622 399.798 246.585C402.078 258.896 402.885 267.896 390.321 271.311C403.909 270.5 404.853 276.361 409.717 290.519Z" fill="#455A64"/>
<path d="M255.717 375.519C253.351 365.398 251.568 355.543 266.48 349.849C250.243 353.666 249.313 343.622 245.798 331.585C248.078 343.896 248.885 352.896 236.321 356.311C249.909 355.5 250.853 361.361 255.717 375.519Z" fill="#455A64"/>
<path d="M882.456 129.731C879.435 116.792 877.152 104.188 896.215 96.9149C875.464 101.791 874.271 88.9605 869.781 73.5615C872.64 89.3219 873.654 100.858 857.653 105.18C875.036 104.1 876.236 111.606 882.456 129.731Z" fill="#876A96"/>
<path d="M257.456 88.7307C254.435 75.7921 252.152 63.1886 271.215 55.9151C250.464 60.7911 249.271 47.9607 244.781 32.5617C247.64 48.3221 248.654 59.8577 232.653 64.1801C250.036 63.1003 251.236 70.6061 257.456 88.7307Z" fill="#876A96"/>
<path d="M69.2267 590.115C66.3353 577.69 64.1486 565.593 82.4431 558.607C62.5121 563.287 61.3719 550.973 57.0761 536.176C59.8582 551.308 60.8613 562.377 45.4413 566.541C62.1057 565.488 63.2526 572.683 69.2267 590.115Z" fill="#876A96"/>
<path d="M333.267 568.858C335.599 579.941 338.371 590.501 355.719 589.267C337.932 592.973 341.626 603.314 343.716 616.855C340.291 603.624 336.939 594.337 322.956 596.775C336.797 591.333 334.986 585.106 333.267 568.858Z" fill="#EBEBEB"/>
<path d="M983.849 325.557C983.127 321.954 985.991 318.417 989.461 316.897C992.931 315.377 996.883 315.321 1000.7 315.123C1004.51 314.925 1008.52 314.462 1011.59 312.281C1014.66 310.099 1016.51 306.276 1019.93 304.447C1024.51 301.99 1030.17 303.863 1035.4 303.532C1038.42 303.267 1041.37 302.476 1044.1 301.197C1025.02 272.875 998.873 249.599 968.044 233.49C937.214 217.38 902.683 208.95 867.598 208.967C751.405 208.967 657.214 299.588 657.214 411.363C657.209 426.126 658.88 440.845 662.196 455.258C665.311 454.575 668.186 452.889 671.083 451.49C674.519 449.793 678.723 448.493 682.33 449.959C687.141 451.909 689.111 458.046 694.059 459.698C696.349 460.47 698.835 460.117 701.24 460.304C706.279 460.69 712.991 464.458 712.338 469.03L666.033 469.471C674.36 496.148 688.322 520.884 707.043 542.132C725.765 563.38 748.843 580.683 774.835 592.957C800.827 605.231 829.172 612.213 858.097 613.466C887.022 614.719 915.905 610.215 942.938 600.237C969.971 590.259 994.573 575.022 1015.2 555.478C1035.83 535.934 1052.05 512.505 1062.84 486.656C1073.62 460.807 1078.75 433.095 1077.89 405.254C1077.03 377.412 1070.21 350.041 1057.85 324.852L983.849 325.557Z" fill="#F5F5F5"/>
<path d="M904.478 274.203C904.478 274.203 896.976 275.702 892.292 279.91C887.607 284.119 872.317 303.643 872.317 303.643H876.372C876.372 303.643 861.7 319.552 861.7 323.475C861.622 324.496 861.926 325.511 862.555 326.336C863.185 327.162 864.1 327.745 865.136 327.981C865.136 327.981 863.887 335.484 867.633 332.179C867.633 332.179 849.204 349.906 851.083 351.405C852.961 352.903 856.076 351.405 856.076 351.405L850.945 362.522C850.945 362.522 854.828 367.325 858.573 365.529L866.694 362.819C866.694 362.819 865.136 366.334 868.251 365.926C871.366 365.518 892.303 334.592 892.303 334.592C892.303 334.592 903.55 332.785 910.101 326.78C916.653 320.775 928.839 291.633 930.397 286.83C931.954 282.026 931.966 274.214 931.966 274.214C931.966 274.214 931.026 265.808 925.403 264.298C919.779 262.789 914.156 261.885 904.478 274.203Z" fill="#E0E0E0"/>
<path d="M925.861 266.061C925.861 266.061 926.147 266.182 926.628 266.281C930.133 266.965 940.556 267.383 944.347 270.942C947.565 273.95 947.542 274.886 947.542 274.886C945.74 274.512 943.968 274.015 942.239 273.399C939.731 272.495 930.236 273.112 930.236 273.112" fill="#E0E0E0"/>
<path d="M844.36 333.027L909.552 320.775L979.886 370.719L913.858 318.638L845.929 325.7L849.72 307.378L847.223 228.942L845.036 232.633L846.421 305.846L837.82 330.46L768.539 402.891L737.192 316.192L743.88 248.146C741.521 249.85 739.207 251.602 736.94 253.402L727.422 319.365L749.527 407.144L733.675 532.162L778.08 591.515C784.943 594.752 791.986 597.624 799.177 600.12L797.562 587.405L850.086 535.434L875.948 477.228L938.208 416.321H934.955L872.134 475.663L847.361 533.286L792.121 584.221L748.931 529.011L770.692 411.771L844.36 333.027Z" fill="#E0E0E0"/>
<path d="M823.664 434.941C823.744 434.809 825.805 435.834 829.093 437.586C832.38 439.337 836.869 441.816 841.794 444.615C846.719 447.413 851.152 450.003 854.336 451.92C857.52 453.837 859.444 455.093 859.364 455.225C859.283 455.357 857.222 454.333 853.935 452.581C850.648 450.829 846.158 448.35 841.222 445.54C836.285 442.731 831.864 440.153 828.623 438.236C826.87 437.284 825.21 436.182 823.664 434.941Z" fill="#E0E0E0"/>
<path d="M675.733 393.305C676.006 393.568 676.241 393.864 676.432 394.187L678.253 396.798C679.845 399.079 682.09 402.395 685.022 406.405C692.602 416.868 700.801 426.904 709.578 436.462C714.72 442.048 719.886 447.16 724.467 451.887C726.758 454.267 729.048 456.47 730.972 458.652C732.897 460.833 734.637 462.982 736.149 464.965C738.549 468.089 740.763 471.34 742.781 474.705C743.491 475.895 744.018 476.831 744.361 477.47C744.558 477.789 744.716 478.129 744.831 478.484C744.569 478.212 744.346 477.908 744.167 477.58C743.697 476.875 743.113 475.994 742.414 474.914C740.88 472.611 738.612 469.306 735.542 465.417C733.996 463.478 732.255 461.395 730.297 459.225C728.338 457.054 726.036 454.906 723.723 452.548C719.141 447.854 713.907 442.753 708.742 437.123C699.921 427.549 691.778 417.415 684.369 406.791C681.517 402.714 679.364 399.321 677.887 396.974C677.222 395.872 676.741 394.969 676.237 394.242C676.026 393.953 675.856 393.638 675.733 393.305Z" fill="#E0E0E0"/>
<path d="M750.661 549.669C751.632 550.249 752.565 550.885 753.455 551.576C755.694 553.097 758.058 554.441 760.522 555.597C762.994 556.734 765.561 557.67 768.195 558.395C769.313 558.64 770.415 558.949 771.494 559.321C770.331 559.315 769.174 559.152 768.058 558.836C765.348 558.236 762.716 557.345 760.213 556.181C757.703 555.019 755.334 553.597 753.146 551.939C752.216 551.293 751.38 550.529 750.661 549.669Z" fill="#F5F5F5"/>
<path d="M743.491 479.773C743.583 480.263 743.617 480.762 743.594 481.26C743.594 482.472 743.674 483.816 743.72 485.304C744.077 494.192 745.542 503.007 748.084 511.559C748.53 512.991 748.92 514.28 749.229 515.437C749.419 515.901 749.55 516.386 749.618 516.881C749.352 516.455 749.141 516 748.988 515.525C748.61 514.633 748.129 513.322 747.591 511.691C744.778 503.157 743.3 494.267 743.204 485.315C743.204 483.596 743.204 482.219 743.296 481.26C743.302 480.759 743.367 480.26 743.491 479.773Z" fill="#F5F5F5"/>
<path d="M751.222 452.239C751.663 454.419 751.92 456.63 751.989 458.85C752.245 464.92 751.471 470.989 749.699 476.82L749.527 477.371L749.24 476.864C747.5 473.856 747.545 470.055 747.752 466.276C747.958 462.497 748.141 458.409 748.462 454.156C749.126 445.673 750.271 436.341 753.421 427.031C754.153 424.511 755.469 422.183 757.269 420.222C757.748 419.693 758.377 419.31 759.079 419.12C759.462 419.039 759.862 419.072 760.226 419.213C760.59 419.355 760.9 419.599 761.117 419.913C761.714 421.096 761.906 422.431 761.667 423.725C761.335 428.595 761.026 433.311 760.728 437.795C760.121 446.741 759.583 454.806 759.102 461.626C758.897 467.002 758.316 472.357 757.361 477.657C756.975 479.594 756.396 481.491 755.631 483.32C755.649 483.193 755.679 483.067 755.723 482.946C755.826 482.637 755.929 482.285 756.067 481.844C756.353 480.885 756.731 479.453 757.097 477.591C757.96 472.295 758.472 466.952 758.632 461.593C759.056 454.762 759.56 446.697 760.11 437.751C760.396 433.256 760.694 428.551 761.003 423.67C761.228 422.519 761.076 421.33 760.568 420.266C760.427 420.054 760.222 419.889 759.98 419.794C759.738 419.699 759.471 419.679 759.216 419.737C758.651 419.899 758.144 420.207 757.75 420.629C756.017 422.538 754.752 424.797 754.051 427.24C750.936 436.462 749.779 445.739 749.092 454.2C748.748 458.431 748.53 462.486 748.324 466.32C748.118 470.154 748.049 473.779 749.676 476.655H749.218C751.018 470.872 751.86 464.852 751.714 458.817C751.714 456.679 751.497 455.027 751.382 453.903C751.382 453.407 751.279 452.988 751.245 452.625C751.222 452.498 751.214 452.368 751.222 452.239Z" fill="#F5F5F5"/>
<path d="M832.987 397.9C833.658 398.87 834.241 399.895 834.727 400.963L839.068 409.523C842.676 416.773 847.578 426.832 852.812 438.026L856.557 446.224L858.298 450.146C858.853 451.414 859.305 452.722 859.65 454.057C860.348 456.514 862.25 458.332 863.842 460.106L868.366 465.031L874.86 472.214C875.7 473.063 876.467 473.977 877.15 474.947C876.219 474.197 875.353 473.376 874.562 472.49L867.804 465.538L863.223 460.701C861.62 458.971 859.57 457.098 858.734 454.355C858.387 453.052 857.935 451.778 857.382 450.543C856.809 449.264 856.237 447.964 855.618 446.642L851.862 438.467L838.438 409.821L834.43 401.128C833.868 400.087 833.386 399.008 832.987 397.9Z" fill="#E0E0E0"/>
<path d="M820.617 405.899C820.8 405.656 826.596 409.479 833.571 414.437C840.546 419.395 846.032 423.604 845.849 423.847C845.666 424.089 839.87 420.255 832.907 415.297C825.943 410.339 820.434 406.13 820.617 405.899Z" fill="#E0E0E0"/>
<path d="M849.296 432.617C849.136 432.617 848.975 430.237 848.907 426.381C848.838 422.524 848.907 417.203 849.079 411.33C849.25 405.458 849.651 400.136 850.006 396.291C850.096 394.207 850.379 392.135 850.854 390.099C851.014 390.099 850.957 392.501 850.796 396.346C850.625 400.522 850.419 405.667 850.189 411.363C849.96 417.06 849.834 422.205 849.697 426.392C849.735 428.474 849.601 430.555 849.296 432.617Z" fill="#E0E0E0"/>
<path d="M917.569 433.961C918.072 433.535 918.7 433.269 919.367 433.201C921.135 432.947 922.934 432.973 924.693 433.278C929.034 434.005 935.104 432.98 941.873 432.363C948.642 431.746 954.723 431.14 959.156 430.799C961.541 430.51 963.945 430.396 966.348 430.457C966.348 430.611 963.645 431.019 959.236 431.559C954.826 432.099 948.733 432.771 941.987 433.443C935.241 434.115 929.079 434.974 924.601 434.049C922.916 433.677 921.185 433.536 919.459 433.63C918.233 433.74 917.603 434.049 917.569 433.961Z" fill="#E0E0E0"/>
<path d="M942.491 433.157C941.838 432.87 943.636 433.685 945.996 434.975L955.353 440.12C962.66 444.163 968.582 447.414 968.444 447.689C968.307 447.964 966.795 447.171 964.31 445.981C961.824 444.791 958.457 443.073 954.803 441.045C951.15 439.018 947.931 437.09 945.584 435.625C944.438 434.886 943.499 434.28 942.881 433.829C942.606 433.575 942.262 433.531 942.205 433.124C942.21 433.088 942.226 433.055 942.25 433.029C942.275 433.003 942.308 432.984 942.343 432.976C942.379 432.967 942.417 432.97 942.452 432.982C942.486 432.995 942.516 433.017 942.537 433.046C942.491 433.157 942.422 433.157 942.491 433.157Z" fill="#E0E0E0"/>
<path d="M910.731 320.709C911.405 319.995 912.149 319.346 912.953 318.77C914.431 317.569 916.607 315.883 919.321 313.845C924.75 309.747 932.378 304.249 941.014 298.42C949.649 292.592 957.667 287.667 963.542 284.196C966.543 282.489 968.834 281.111 970.563 280.197C971.403 279.685 972.293 279.253 973.22 278.908C972.467 279.546 971.65 280.111 970.781 280.594L963.966 284.913C958.239 288.548 950.279 293.606 941.655 299.379C933.031 305.152 925.311 310.507 919.802 314.451L913.228 319.101C912.451 319.713 911.615 320.251 910.731 320.709Z" fill="#E0E0E0"/>
<path d="M958.24 287.303C957.965 287.138 960.083 283.623 961.985 279.007C963.886 274.39 964.882 270.446 965.215 270.512C965.547 270.578 964.997 274.677 963.027 279.404C961.057 284.13 958.526 287.469 958.24 287.303Z" fill="#E0E0E0"/>
<path d="M932.699 304.866C932.63 304.568 942.812 302.045 955.433 299.214C968.055 296.382 978.34 294.322 978.42 294.608C978.5 294.895 968.307 297.429 955.685 300.26C943.064 303.092 932.779 305.152 932.699 304.866Z" fill="#E0E0E0"/>
<path d="M846.444 315.145C846.444 315.145 846.627 314.848 847.074 314.363L849.033 312.281L856.34 304.7C862.524 298.31 871.034 289.463 880.266 279.547C889.497 269.631 897.72 260.519 903.642 253.908L910.663 246.086L912.61 243.981C913.056 243.508 913.308 243.276 913.343 243.298C913.191 243.594 913.002 243.872 912.781 244.125L910.995 246.328C909.437 248.256 907.123 251.011 904.237 254.371C898.511 261.114 890.344 270.314 881.102 280.241C871.859 290.168 863.246 298.971 856.912 305.207C853.751 308.336 851.186 310.837 849.342 312.545L847.234 314.495C846.999 314.742 846.734 314.96 846.444 315.145Z" fill="#E0E0E0"/>
<path d="M886.37 273.068C888.285 271.858 890.3 270.8 892.395 269.906C896.174 268.077 901.443 265.62 907.284 262.954C913.125 260.288 918.439 257.941 922.311 256.343C924.358 255.356 926.483 254.527 928.667 253.864C928.736 253.997 926.434 255.197 922.643 257.026C918.852 258.855 913.606 261.323 907.753 263.979C901.901 266.634 896.598 268.992 892.738 270.589C888.878 272.187 886.37 273.201 886.37 273.068Z" fill="#E0E0E0"/>
<path d="M887.607 254.437C887.905 254.536 885.946 260.64 883.633 268.199C881.319 275.757 879.498 281.905 879.189 281.827C878.88 281.75 880.22 275.481 882.556 267.89C884.893 260.299 887.332 254.338 887.607 254.437Z" fill="#E0E0E0"/>
<path d="M852.995 193.994C853.072 196.094 852.949 198.196 852.629 200.274C852.239 204.13 851.552 209.452 850.602 215.302C849.651 221.153 848.609 226.43 847.761 230.22C847.407 232.291 846.859 234.326 846.123 236.302C845.963 236.302 846.33 233.9 846.982 230.077C847.681 225.923 848.552 220.8 849.502 215.137C850.453 209.474 851.197 204.339 851.793 200.175C852.434 196.341 852.835 193.972 852.995 193.994Z" fill="#E0E0E0"/>
<path d="M849.571 217.274C849.342 217.054 852.835 213.484 857.038 209.011C861.242 204.538 864.632 200.88 864.873 201.067C865.113 201.254 862.112 205.243 857.863 209.738C853.614 214.233 849.777 217.484 849.571 217.274Z" fill="#E0E0E0"/>
<path d="M947.153 345.951C947.095 345.653 956.647 343.747 968.49 341.632C980.333 339.516 989.976 338.073 990.034 338.327C990.091 338.58 980.539 340.53 968.696 342.657C956.854 344.783 947.21 346.237 947.153 345.951Z" fill="#E0E0E0"/>
<path d="M999.906 402.748C1000.56 398.175 993.848 394.407 988.797 394.021C986.392 393.834 983.895 394.187 981.616 393.426C976.679 391.763 974.744 385.637 969.887 383.676C966.291 382.21 962.145 383.521 958.652 385.207C955.159 386.893 951.711 389.019 947.806 389.262C944.37 389.471 940.727 388.259 937.761 389.857C935.551 391.047 934.394 393.504 932.355 394.947C930.316 396.39 927.774 396.655 925.277 396.787C922.78 396.919 920.238 396.941 917.993 397.889C915.748 398.836 913.87 401.194 914.339 403.519L999.906 402.748Z" fill="#EBEBEB"/>
<path d="M838.267 275.503C838.931 270.931 832.208 267.163 827.168 266.777C824.763 266.59 822.266 266.942 819.987 266.182C815.051 264.519 813.115 258.382 808.259 256.431C804.663 254.966 800.517 256.266 797.023 257.963C793.53 259.66 790.083 261.775 786.177 262.017C782.741 262.227 779.099 261.015 776.133 262.612C773.922 263.802 772.765 266.248 770.715 267.703C768.665 269.157 766.134 269.41 763.649 269.543C761.163 269.675 758.609 269.697 756.353 270.644C754.097 271.592 752.241 273.95 752.711 276.274L838.267 275.503Z" fill="#EBEBEB"/>
<path d="M663.353 614.718C671.301 626.331 688.928 625.053 702.889 628.667C718.363 632.677 730.595 643.695 743.491 652.851C796.737 690.653 871.504 698.244 931.771 671.978C961.767 658.911 989.289 637.911 1022.09 635.156C1036.91 633.911 1052.13 636.534 1066.56 633.063C1088.7 627.752 1105.72 606.951 1105.92 585.003L663.353 614.718Z" fill="#F5F5F5"/>
<path d="M1105.45 611.752C1105.45 611.894 994.716 612.015 858.156 612.015C721.596 612.015 610.81 611.904 610.81 611.752C610.81 611.6 721.512 611.479 858.114 611.479C994.716 611.479 1105.45 611.61 1105.45 611.752Z" fill="#263238"/>
<path d="M627.41 386.41L668.438 371.847C668.438 371.847 675.802 389.507 697.705 383.455C697.705 383.455 696.832 369.59 699.599 372.049C702.365 374.509 706.531 381.249 706.531 381.249L710.308 380.813C710.308 380.813 706.174 367.465 708.541 367.566C710.908 367.668 716.557 378.213 716.557 378.213C716.557 378.213 738.502 368.609 732.568 348.622L770.787 333.371C770.787 333.371 753.082 354.056 763.96 374.549C763.96 374.549 729.244 365.441 739.817 395.801C739.817 395.801 713.169 390.691 722.985 420.686C722.985 420.686 712.138 393.595 693.434 412.337C693.434 412.337 683.356 383.829 660.664 410.617C660.675 410.586 660.454 389.699 627.41 386.41Z" fill="#263238"/>
<path d="M959.863 385.62L981.829 398.695C981.829 398.695 975.97 408.421 986.858 416.021C986.858 416.021 993.254 410.586 993.065 412.722C992.648 414.93 992.003 417.093 991.139 419.178L992.717 420.706C992.717 420.706 997.672 413.997 998.482 415.1C999.292 416.203 996.252 422.558 996.252 422.558C996.252 422.558 1008.88 428.893 1016.39 418.966L1037.67 430.533C1037.67 430.533 1021.23 430.128 1015.26 442.454C1015.26 442.454 1007.07 423.58 996.221 439.358C996.221 439.358 988.993 425.564 978.052 440.876C978.052 440.876 987.226 426.171 971.351 424.613C971.351 424.613 981.471 409.726 960.263 409.311C960.274 409.352 970.289 401.61 959.863 385.62Z" fill="#263238"/>
<path d="M670.869 534.536C670.869 534.536 665.104 521.866 646.357 528.221C627.61 534.577 614.85 544.505 614.166 566.404C614.166 566.404 609.316 595.55 632.386 607.127C632.386 607.127 645.442 631.476 678.569 618.512C678.569 618.512 695.811 623.845 710.382 608.665C710.382 608.665 732.695 599.932 736.208 572.77C739.291 548.927 732.137 539.87 732.137 539.87C732.137 539.87 723.574 525.428 707.794 524.467C692.014 523.506 670.869 534.536 670.869 534.536Z" fill="#876A96"/>
<g opacity="0.3">
<path opacity="0.3" d="M676.539 549.656C678.569 549.656 680.189 547.874 680.82 546.012C681.273 544.107 681.499 542.158 681.494 540.204C681.942 535.628 683.929 531.319 687.153 527.928L679.789 530.549L672.11 543.27L676.539 549.656Z" fill="black"/>
</g>
<path d="M668.807 547.328C668.807 547.328 667.271 538.969 671.321 525.924C675.371 512.88 678.19 511.422 678.19 511.422L681.725 515.612C681.725 515.612 675.855 524.244 676.718 531.804C677.58 539.364 678.916 545.243 678.916 545.243C678.916 545.243 678.674 551.69 673.656 549.949C668.638 548.208 668.807 547.328 668.807 547.328Z" fill="#965D47"/>
<path d="M669.006 547.844C668.781 547.769 668.559 547.681 668.344 547.581L666.482 546.741C664.872 546.023 662.547 544.93 659.612 543.756C656.201 542.328 652.633 541.275 648.976 540.618C644.505 539.816 639.895 540.112 635.574 541.479C631.32 543.03 627.483 545.482 624.349 548.654C621.69 551.156 619.422 554.016 617.616 557.144C616.386 559.247 615.438 561.491 614.797 563.824C614.334 565.473 614.208 566.414 614.145 566.404C614.139 566.173 614.164 565.942 614.218 565.716C614.304 565.062 614.427 564.414 614.586 563.773C615.181 561.396 616.101 559.106 617.322 556.962C619.102 553.772 621.368 550.856 624.044 548.31C625.611 546.797 627.299 545.407 629.094 544.15C631.031 542.81 633.156 541.74 635.406 540.973C639.816 539.581 644.523 539.292 649.082 540.133C652.766 540.829 656.356 541.929 659.78 543.412C662.715 544.636 665.04 545.78 666.597 546.559L668.417 547.49C668.628 547.584 668.826 547.703 669.006 547.844Z" fill="#263238"/>
<path d="M666.345 548.158C666.112 548.256 665.868 548.331 665.619 548.38C665.125 548.492 664.42 548.674 663.515 548.967C660.977 549.804 658.559 550.946 656.319 552.368C654.784 553.355 653.321 554.444 651.943 555.626C650.363 556.99 648.883 558.458 647.514 560.018C644.383 563.61 641.798 567.61 639.834 571.899C637.908 576.208 636.39 580.676 635.3 585.248C634.384 588.979 633.682 592.756 633.196 596.562C632.786 599.81 632.618 602.452 632.513 604.283C632.513 605.164 632.439 605.862 632.418 606.398C632.41 606.642 632.389 606.885 632.355 607.127C632.325 606.882 632.325 606.634 632.355 606.388C632.355 605.913 632.355 605.194 632.355 604.283C632.355 602.442 632.513 599.78 632.87 596.511C633.302 592.685 633.969 588.887 634.869 585.136C635.936 580.528 637.447 576.025 639.382 571.687C643.59 562.437 650.365 555.495 656.162 552.054C658.449 550.643 660.927 549.54 663.526 548.775C664.215 548.563 664.918 548.394 665.63 548.269C665.865 548.216 666.104 548.178 666.345 548.158Z" fill="#263238"/>
<path d="M678.548 618.512C678.589 618.267 678.656 618.026 678.748 617.794C678.885 617.338 679.148 616.67 679.4 615.77C679.947 614.019 680.631 611.458 681.304 608.261C683.002 599.909 683.861 591.42 683.871 582.91C683.871 580.42 683.755 577.992 683.482 575.664C683.208 573.336 682.851 571.09 682.43 568.975C681.588 564.734 680.642 560.939 679.863 557.762C679.085 554.584 677.896 552.125 676.349 551.042C675.563 550.488 674.657 550.112 673.698 549.939C673.765 549.93 673.832 549.93 673.898 549.939C674.024 549.939 674.224 549.939 674.466 550C675.197 550.146 675.886 550.443 676.486 550.87C678.127 551.953 679.39 554.503 680.242 557.661C681.094 560.818 682.051 564.613 682.924 568.874C683.356 570.999 683.745 573.245 683.976 575.593C684.208 577.941 684.334 580.39 684.376 582.9C684.376 591.445 683.459 599.967 681.641 608.331C681.084 610.863 680.382 613.363 679.537 615.82C679.253 616.701 678.958 617.348 678.79 617.844C678.721 618.07 678.64 618.293 678.548 618.512Z" fill="#263238"/>
<path d="M713.517 601.096C713.491 600.847 713.491 600.596 713.517 600.347C713.517 599.8 713.622 599.092 713.695 598.201C713.769 596.349 713.948 593.647 713.78 590.328C713.613 586.435 713.106 582.562 712.265 578.751C711.246 574.089 709.609 569.572 707.394 565.311C706.234 563.117 704.86 561.033 703.291 559.087C701.813 557.293 700.137 555.658 698.294 554.21C695.173 551.741 691.465 550.054 687.501 549.301C684.825 548.807 682.076 548.807 679.4 549.301C678.689 549.428 677.986 549.597 677.296 549.807C677.048 549.891 676.79 549.949 676.528 549.979C676.761 549.868 677.004 549.777 677.254 549.706C677.939 549.453 678.642 549.25 679.358 549.099C682.052 548.508 684.841 548.435 687.564 548.887C691.616 549.599 695.415 551.284 698.61 553.785C700.49 555.246 702.201 556.898 703.712 558.713C705.318 560.683 706.727 562.794 707.92 565.018C710.16 569.319 711.801 573.885 712.801 578.599C713.627 582.441 714.099 586.345 714.211 590.267C714.282 592.904 714.195 595.543 713.948 598.171C713.832 599.061 713.738 599.77 713.664 600.306C713.637 600.573 713.588 600.837 713.517 601.096Z" fill="#263238"/>
<path d="M721.47 534.091C720.884 533.834 720.315 533.543 719.765 533.221C718.227 532.427 716.618 531.766 714.958 531.247C712.5 530.47 709.938 530.044 707.352 529.982C704.188 529.931 701.04 530.417 698.052 531.419C695.035 532.353 692.143 533.627 689.436 535.214C687.251 536.549 685.238 538.129 683.44 539.92C682.239 541.143 681.112 542.43 680.063 543.776L679.221 544.879C679.129 545.016 679.019 545.142 678.895 545.253C678.895 545.253 678.958 545.091 679.127 544.818C679.295 544.545 679.59 544.12 679.884 543.654C680.878 542.251 681.971 540.916 683.156 539.657C684.95 537.818 686.975 536.199 689.184 534.84C691.912 533.202 694.842 531.896 697.905 530.954C700.945 529.93 704.153 529.447 707.373 529.527C711.784 529.678 716.083 530.9 719.871 533.079C720.407 533.373 720.796 533.656 721.07 533.828C721.213 533.901 721.347 533.989 721.47 534.091Z" fill="#263238"/>
<path d="M1009.2 551.905C1009.2 551.905 1001.1 538.69 973.017 542.542C944.932 546.393 925.641 554.548 923.798 576.042C923.798 576.042 915.579 604.144 949.382 618.512C949.382 618.512 967.898 644.185 1017.55 635.646C1017.55 635.646 1042.97 643.123 1065.15 629.998C1065.15 629.998 1098.63 624.249 1104.81 597.932C1110.25 574.823 1099.97 564.985 1099.97 564.985C1090.87 554.9 1078.23 548.39 1064.46 546.698C1041.18 543.773 1009.2 551.905 1009.2 551.905Z" fill="#876A96"/>
<path d="M1005.67 564.25C1005.67 564.25 1003.69 555.813 1010.19 543.479C1016.7 531.145 1020.91 530.072 1020.91 530.072L1026.01 534.59C1026.01 534.59 1016.98 542.338 1017.98 549.94C1018.58 554.514 1019.51 559.043 1020.76 563.494C1020.76 563.494 1020.17 569.83 1012.87 567.481C1005.56 565.131 1005.67 564.25 1005.67 564.25Z" fill="#965D47"/>
<path d="M1005.95 564.781C1005.65 564.711 1005.35 564.613 1005.07 564.488L1002.59 563.528C1000.45 562.692 997.334 561.461 993.459 560.049C988.933 558.373 984.306 556.959 979.604 555.813C973.852 554.401 967.929 553.732 961.992 553.825C956.06 553.901 950.205 555.131 944.779 557.44C940.377 559.378 936.431 562.156 933.179 565.606C930.998 567.952 929.225 570.622 927.93 573.512C927.583 574.299 927.277 575.102 927.015 575.918C926.932 576.206 926.822 576.486 926.686 576.754C926.739 576.461 926.81 576.17 926.897 575.884C927.113 575.058 927.388 574.247 927.719 573.456C928.938 570.503 930.678 567.775 932.862 565.391C936.113 561.849 940.09 558.991 944.545 556.999C950.033 554.632 955.967 553.371 961.981 553.294C967.967 553.2 973.939 553.888 979.734 555.339C984.449 556.518 989.084 557.978 993.612 559.71C997.475 561.178 1000.56 562.477 1002.69 563.37L1005.12 564.431C1005.41 564.525 1005.68 564.643 1005.95 564.781Z" fill="#263238"/>
<path d="M1002 564.759C1001.71 564.822 1001.43 564.86 1001.14 564.872C1000.57 564.939 999.741 564.951 998.684 565.109C995.683 565.437 992.714 566 989.808 566.792C985.501 567.963 981.351 569.616 977.444 571.716C972.653 574.288 968.297 577.549 964.529 581.385C960.863 585.302 957.864 589.75 955.64 594.566C953.773 598.482 952.306 602.564 951.261 606.753C950.534 609.573 950.008 612.437 949.687 615.326C949.535 616.354 949.523 617.156 949.453 617.687C949.44 617.964 949.404 618.24 949.347 618.511C949.314 618.238 949.314 617.961 949.347 617.687C949.347 617.145 949.347 616.332 949.464 615.304C949.704 612.39 950.171 609.498 950.862 606.652C951.856 602.42 953.291 598.295 955.147 594.34C957.374 589.456 960.403 584.949 964.118 580.99C967.913 577.091 972.318 573.787 977.174 571.197C981.128 569.1 985.33 567.469 989.69 566.34C992.626 565.575 995.629 565.072 998.661 564.838C999.729 564.714 1000.56 564.736 1001.13 564.702C1001.42 564.694 1001.71 564.712 1002 564.759Z" fill="#263238"/>
<path d="M1017.55 635.646C1017.64 635.409 1017.76 635.182 1017.9 634.968C1018.14 634.516 1018.56 633.907 1018.97 633.048C1020.22 630.667 1021.29 628.206 1022.19 625.684C1023.51 621.938 1024.56 618.107 1025.33 614.219C1026.31 609.469 1026.82 604.639 1026.86 599.796C1026.86 594.955 1026.13 590.14 1024.71 585.496C1024.12 583.339 1023.48 581.306 1022.88 579.397C1022.37 577.624 1021.77 575.879 1021.06 574.167C1020.48 572.768 1019.64 571.482 1018.59 570.372C1017.78 569.539 1016.82 568.867 1015.74 568.396C1014.81 568.024 1013.85 567.719 1012.87 567.481C1013.89 567.544 1014.9 567.781 1015.84 568.181C1016.96 568.631 1017.98 569.296 1018.83 570.135C1019.95 571.259 1020.84 572.568 1021.46 573.998C1022.19 575.716 1022.82 577.469 1023.36 579.25C1023.99 581.148 1024.64 583.192 1025.26 585.349C1026.74 590.034 1027.5 594.9 1027.52 599.796C1027.48 604.676 1026.95 609.541 1025.92 614.321C1025.13 618.229 1024.03 622.073 1022.64 625.819C1021.7 628.349 1020.57 630.804 1019.23 633.161C1018.88 633.802 1018.48 634.425 1018.06 635.025C1017.91 635.247 1017.74 635.455 1017.55 635.646Z" fill="#263238"/>
<path d="M1070.12 622.973C1070.13 622.673 1070.17 622.374 1070.24 622.081C1070.31 621.493 1070.53 620.658 1070.64 619.539C1071.06 616.424 1071.15 613.275 1070.89 610.142C1070.56 605.495 1069.49 600.925 1067.72 596.588C1063.5 585.802 1055.05 577.04 1044.18 572.18C1041.83 571.111 1039.4 570.216 1036.91 569.503C1034.75 568.897 1032.55 568.433 1030.33 568.113C1027.1 567.637 1023.82 567.486 1020.56 567.662C1019.38 567.662 1018.52 567.831 1017.9 567.854C1017.59 567.886 1017.28 567.886 1016.97 567.854C1017.27 567.786 1017.57 567.733 1017.88 567.696C1018.49 567.628 1019.38 567.447 1020.55 567.379C1023.83 567.127 1027.13 567.217 1030.39 567.65C1035.24 568.277 1039.96 569.618 1044.39 571.626C1055.43 576.5 1064 585.389 1068.22 596.34C1069.14 598.691 1069.87 601.108 1070.41 603.568C1070.86 605.712 1071.15 607.881 1071.29 610.063C1071.51 613.225 1071.35 616.399 1070.84 619.528C1070.69 620.658 1070.44 621.482 1070.32 622.058C1070.28 622.368 1070.21 622.674 1070.12 622.973Z" fill="#263238"/>
<path d="M1084.4 557.959C1084.17 557.913 1083.95 557.833 1083.75 557.722C1083.34 557.553 1082.75 557.248 1081.97 556.931C1079.77 555.984 1077.51 555.162 1075.21 554.469C1067.63 552.168 1059.64 551.373 1051.73 552.131C1047.37 552.551 1043.05 553.306 1038.82 554.39C1035.38 555.286 1032.05 556.552 1028.91 558.162C1026.78 559.265 1024.75 560.526 1022.82 561.935C1022.15 562.49 1021.45 563.01 1020.72 563.494C1020.87 563.322 1021.03 563.164 1021.2 563.019C1021.53 562.737 1022 562.274 1022.67 561.766C1024.54 560.267 1026.54 558.936 1028.66 557.79C1031.81 556.103 1035.16 554.784 1038.64 553.859C1042.89 552.759 1047.23 552.003 1051.61 551.6C1059.61 550.817 1067.69 551.68 1075.31 554.13C1077.61 554.861 1079.85 555.744 1082.02 556.773C1082.8 557.135 1083.38 557.462 1083.77 557.666C1083.99 557.746 1084.2 557.844 1084.4 557.959Z" fill="#263238"/>
<path opacity="0.3" d="M955.077 624.114C955.077 624.114 975.354 595.786 979.734 572.676C984.113 549.567 981.964 541.83 981.964 541.83L964.904 543.807L943.77 615.789L949.382 618.489L955.077 624.114Z" fill="black"/>
<path d="M952.315 597.38C966.29 594.585 979.486 584.493 982.884 567.819C987.196 546.937 968.965 531.629 954.88 521.926C945.868 515.717 931.743 503.37 938.476 490.468C943.105 481.583 955.547 479.566 961.748 482.139C962.385 482.402 963.068 482.538 963.757 482.538C964.447 482.538 965.13 482.402 965.767 482.138C966.404 481.874 966.982 481.487 967.47 481C967.958 480.512 968.344 479.933 968.608 479.296C968.872 478.659 969.008 477.976 969.007 477.287C969.007 476.597 968.872 475.914 968.608 475.277C968.344 474.64 967.957 474.062 967.469 473.574C966.981 473.086 966.403 472.7 965.766 472.436C955.555 468.196 936.689 471.166 929.154 485.608C925.335 492.945 925.184 500.964 928.709 508.785C932.124 516.36 938.92 523.689 948.925 530.573C973.189 547.294 974.055 558.625 972.594 565.699C969.331 581.508 953.856 589.17 940.786 587.439C940.093 587.327 939.384 587.356 938.701 587.523C938.019 587.69 937.377 587.992 936.813 588.411C936.249 588.831 935.775 589.359 935.419 589.964C935.063 590.57 934.832 591.241 934.74 591.937C934.648 592.634 934.696 593.342 934.882 594.019C935.068 594.697 935.387 595.33 935.822 595.882C936.257 596.434 936.798 596.893 937.414 597.232C938.029 597.571 938.706 597.783 939.405 597.856C943.705 598.402 948.066 598.241 952.315 597.38Z" fill="#37474F"/>
<path d="M888.819 528.794C858.949 538.751 833.787 554.813 833.39 556.028C833.39 556.028 804.258 538.004 780.676 529.342C793.102 519.385 804.806 515.899 830.579 514.74C857.567 513.533 878.433 517.257 888.819 528.794Z" fill="#876A96"/>
<path opacity="0.25" d="M888.819 528.794C858.949 538.751 833.787 554.813 833.39 556.028C833.39 556.028 804.258 538.004 780.676 529.342C793.102 519.385 804.806 515.899 830.579 514.74C857.567 513.533 878.433 517.257 888.819 528.794Z" fill="black"/>
<path opacity="0.1" d="M861.696 516.161C861.775 516.201 866.809 518.813 863.903 521.188C860.997 523.562 839.845 529.771 829.761 528.484C819.678 527.198 804.774 521.283 807.633 517.067C796.35 519.218 788.68 522.934 780.708 529.342C804.29 538.004 833.43 556.06 833.422 556.028C833.819 554.813 858.981 538.751 888.851 528.794C882.904 522.228 873.598 518.194 861.696 516.161Z" fill="black"/>
<path d="M832.516 556.902C832.516 556.902 878.433 543.404 913.258 563.825C924.192 570.241 942.859 595.434 946.781 622.176C956.611 556.576 908.907 519.512 865.293 526.174C836.145 530.628 832.318 547.421 832.516 556.902Z" fill="#876A96"/>
<path opacity="0.1" d="M832.516 556.902C832.516 556.902 878.433 543.404 913.258 563.825C924.192 570.241 942.859 595.434 946.781 622.176C956.611 556.576 908.907 519.512 865.293 526.174C836.145 530.628 832.318 547.421 832.516 556.902Z" fill="black"/>
<path opacity="0.1" d="M946.781 622.176C948.925 607.884 948.329 594.902 945.638 583.461C944.844 587.288 943.256 588.662 941.12 584.485C937.332 577.093 934.974 569.399 919.459 555.29C903.945 541.18 881.451 538.87 866.833 537.433C852.216 535.996 857.837 530.239 865.293 526.174C836.145 530.628 832.318 547.421 832.516 556.902C832.516 556.902 878.433 543.404 913.258 563.825C924.192 570.241 942.859 595.434 946.781 622.176Z" fill="black"/>
<path d="M836.637 557.362C836.637 557.362 790.712 543.864 755.895 564.286C744.954 570.701 725.985 604.296 722.055 631.037C711.86 600.905 728.24 560.792 746.367 544.341C762.247 529.937 783.495 523.522 803.853 526.626C833.009 531.081 836.828 547.882 836.637 557.362Z" fill="#876A96"/>
<path opacity="0.1" d="M836.637 557.362C836.637 557.362 790.712 543.864 755.895 564.286C744.954 570.701 725.985 604.296 722.055 631.037C711.86 600.905 728.24 560.792 746.367 544.341C762.247 529.937 783.495 523.522 803.853 526.626C833.009 531.081 836.828 547.882 836.637 557.362Z" fill="black"/>
<path opacity="0.1" d="M803.853 526.626C793.617 525.091 783.167 525.892 773.284 528.969C786.504 526.253 810.054 528.731 804.814 533.796C799.573 538.862 778.906 536.75 760.437 547.294C732.33 563.333 730.726 586.057 726.478 586.597C723.524 586.978 726.105 577.196 727.947 571.233C719.673 589.622 715.703 612.275 722.055 631.045C726.025 604.304 744.954 570.701 755.895 564.294C790.712 543.864 836.637 557.37 836.637 557.37C836.828 547.882 833.009 531.081 803.853 526.626Z" fill="black"/>
<path d="M916.164 562.015C893.869 544.65 874.289 542.959 855.955 548.906C839.988 554.131 853.097 554.012 857.305 557.172C860.521 559.117 877.997 568.375 881.252 570.813C901.849 586.192 914.91 621.906 916.379 638.7C917.594 652.595 917.268 673.112 909.066 689.166C923.279 685.252 942.231 672.492 945.995 647.807C951.624 610.917 938.452 579.38 916.164 562.015Z" fill="#876A96"/>
<path opacity="0.1" d="M945.995 647.807C946.313 645.75 946.559 643.718 946.789 641.693C940.572 665.013 931.187 664.767 928.265 662.948C925.343 661.13 929.512 642.558 926.185 625.154C922.858 607.749 911.099 585.144 899.03 573.123C886.961 561.102 870.263 558.164 870.89 552.781C871.518 547.397 887.072 547.223 900.904 552.273C884.77 544.285 870.009 544.333 855.987 548.906C840.02 554.131 853.129 554.011 857.337 557.172C860.553 559.117 878.029 568.375 881.284 570.812C901.88 586.192 914.942 621.906 916.411 638.699C917.625 652.594 917.3 673.111 909.098 689.166C923.279 685.252 942.231 672.468 945.995 647.807Z" fill="black"/>
<path d="M830.944 554.321C830.944 554.321 849.04 570.368 858.171 589.646C872.113 619.096 878.171 653.746 872.804 680.385C870.255 693.136 867.627 702.902 861.688 709.763C868.969 713.883 889.859 713.653 902.778 698.647C905.256 695.754 907.368 692.568 909.066 689.158C917.268 673.104 919.055 652.142 917.848 638.247C916.371 621.462 913.695 593.497 885.373 572.345C864.84 556.957 839.917 549.843 831.008 554.321H830.944Z" fill="#876A96"/>
<path opacity="0.15" d="M830.944 554.321C830.944 554.321 849.04 570.368 858.171 589.646C872.113 619.096 878.171 653.746 872.804 680.385C870.255 693.136 867.627 702.902 861.688 709.763C868.969 713.883 889.859 713.653 902.778 698.647C905.256 695.754 907.368 692.568 909.066 689.158C917.268 673.104 919.055 652.142 917.848 638.247C916.371 621.462 913.695 593.497 885.373 572.345C864.84 556.957 839.917 549.843 831.008 554.321H830.944Z" fill="white"/>
<path opacity="0.05" d="M903.182 681.814C888.406 695.979 878.044 694.716 878.044 694.716C891.725 665.1 881.22 632.991 871.446 612.243L868.199 616.213C874.654 638.501 876.615 661.471 872.804 680.408C870.255 693.16 867.627 702.926 861.688 709.786C868.969 713.907 889.859 713.677 902.777 698.67C905.256 695.778 907.368 692.591 909.066 689.182C916.545 674.533 918.681 655.834 918.086 642.098C918.046 644.138 917.324 668.252 903.182 681.814Z" fill="black"/>
<path d="M753.196 562.015C775.483 544.65 795.071 542.959 813.405 548.906C829.364 554.131 816.255 554.012 812.047 557.172C808.823 559.085 791.348 568.375 788.132 570.813C767.488 586.192 754.474 621.906 752.997 638.7C751.783 652.595 752.116 673.112 760.318 689.166C746.105 685.252 727.145 672.492 723.381 647.807C717.72 610.917 730.892 579.38 753.196 562.015Z" fill="#876A96"/>
<path opacity="0.1" d="M813.397 548.906C801.638 545.087 789.37 544.428 776.198 549.009C787.894 546.167 801.495 550.01 796.659 555.29C791.824 560.57 766.337 563.23 752.799 597.261C739.261 631.291 747.487 656.017 745.756 665.854C744.025 675.692 726.906 664.528 722.309 638.239C722.516 641.383 722.862 644.572 723.349 647.807C727.113 672.468 746.074 685.252 760.286 689.166C752.084 673.111 751.751 652.594 752.966 638.699C754.442 621.906 767.496 586.192 788.1 570.812C791.348 568.375 808.823 559.117 812.039 557.172C816.247 554.011 829.356 554.13 813.397 548.906Z" fill="black"/>
<path d="M838.4 554.321C838.4 554.321 820.305 570.4 811.158 589.678C797.207 619.127 791.157 653.778 796.524 680.416C799.073 693.168 801.693 702.934 807.64 709.794C800.367 713.915 779.477 713.685 766.551 698.678C764.078 695.784 761.969 692.597 760.27 689.19C752.068 673.135 750.274 652.174 751.489 638.279C752.958 621.494 755.816 590.956 784.138 569.772C804.671 554.409 829.396 549.867 838.352 554.337L838.4 554.321Z" fill="#876A96"/>
<path opacity="0.15" d="M838.4 554.321C838.4 554.321 820.305 570.4 811.158 589.678C797.207 619.127 791.157 653.778 796.524 680.416C799.073 693.168 801.693 702.934 807.64 709.794C800.367 713.915 779.477 713.685 766.551 698.678C764.078 695.784 761.969 692.597 760.27 689.19C752.068 673.135 750.274 652.174 751.489 638.279C752.958 621.494 755.816 590.956 784.138 569.772C804.671 554.409 829.396 549.867 838.352 554.337L838.4 554.321Z" fill="white"/>
<path opacity="0.05" d="M766.162 681.814C780.938 695.979 791.308 694.716 791.308 694.716C777.627 665.1 788.132 632.991 797.906 612.243L801.146 616.213C794.69 638.501 792.729 661.471 796.548 680.408C799.097 693.16 801.717 702.926 807.664 709.786C800.391 713.907 779.501 713.677 766.575 698.67C764.102 695.776 761.992 692.589 760.294 689.182C752.807 674.533 750.671 655.834 751.274 642.098C751.306 644.138 752.029 668.252 766.162 681.814Z" fill="black"/>
<path d="M793.102 651.761C792.753 669.03 795.667 694.756 804.584 706.769C813.5 718.782 824.481 722.832 835.55 722.57C845.443 722.308 854.526 718.155 861.664 709.802C867.603 702.934 872.161 693.128 874.71 680.385C880.077 653.746 876.298 617.921 862.966 588.161C847.88 554.607 831.373 557.45 831.373 557.45C831.373 557.45 821.123 556.394 805.838 587.312C799.621 599.929 793.539 628.108 793.102 651.761Z" fill="#876A96"/>
<path opacity="0.3" d="M793.102 651.761C792.753 669.03 795.667 694.756 804.584 706.769C813.5 718.782 824.481 722.832 835.55 722.57C845.443 722.308 854.526 718.155 861.664 709.802C867.603 702.934 872.161 693.128 874.71 680.385C880.077 653.746 876.298 617.921 862.966 588.161C847.88 554.607 831.373 557.45 831.373 557.45C831.373 557.45 821.123 556.394 805.838 587.312C799.621 599.929 793.539 628.108 793.102 651.761Z" fill="white"/>
<path opacity="0.05" d="M876.726 665.33C873.971 682.489 861.529 703.133 839.964 709.199C818.121 715.344 801.058 698.877 796.461 686.617C798.287 694.621 800.931 701.846 804.584 706.769C813.508 718.79 824.481 722.832 835.55 722.57C845.443 722.308 854.526 718.155 861.664 709.802C867.603 702.934 872.161 693.128 874.71 680.385C875.703 675.415 876.377 670.386 876.726 665.33Z" fill="black"/>
<path d="M835.081 612.688C879.998 612.688 916.411 591.665 916.411 565.731C916.411 539.797 879.998 518.774 835.081 518.774C790.164 518.774 753.752 539.797 753.752 565.731C753.752 591.665 790.164 612.688 835.081 612.688Z" fill="#876A96"/>
<path opacity="0.35" d="M835.081 612.688C879.998 612.688 916.411 591.665 916.411 565.731C916.411 539.797 879.998 518.774 835.081 518.774C790.164 518.774 753.752 539.797 753.752 565.731C753.752 591.665 790.164 612.688 835.081 612.688Z" fill="white"/>
<path d="M835.081 604.216C875.617 604.216 908.478 586.115 908.478 563.786C908.478 541.457 875.617 523.355 835.081 523.355C794.545 523.355 761.684 541.457 761.684 563.786C761.684 586.115 794.545 604.216 835.081 604.216Z" fill="#876A96"/>
<path opacity="0.2" d="M835.081 604.216C875.617 604.216 908.478 586.115 908.478 563.786C908.478 541.457 875.617 523.355 835.081 523.355C794.545 523.355 761.684 541.457 761.684 563.786C761.684 586.115 794.545 604.216 835.081 604.216Z" fill="black"/>
<path d="M855.011 692.962C854.661 690.715 854.32 688.587 854.32 688.587C850.969 688.888 849.286 689.007 845.927 689.182L844.419 696.598C841.339 697.144 838.216 697.41 835.089 697.392C820.209 697.471 801.614 689.309 802.194 671.928C806.029 672.524 807.95 672.778 811.809 673.199C812.214 676.105 812.968 680.925 812.968 680.925C816.327 681.274 818.01 681.409 821.369 681.631L822.917 674.128C837.972 675.025 853.08 674.287 867.977 671.928C867.977 676.291 866.764 680.569 864.475 684.283C862.185 687.997 858.908 691.001 855.011 692.962Z" fill="#876A96"/>
<path opacity="0.1" d="M855.011 692.962C854.661 690.715 854.32 688.587 854.32 688.587C850.969 688.888 849.286 689.007 845.927 689.182L844.419 696.598C841.339 697.144 838.216 697.41 835.089 697.392C820.209 697.471 801.614 689.309 802.194 671.928C806.029 672.524 807.95 672.778 811.809 673.199C812.214 676.105 812.968 680.925 812.968 680.925C816.327 681.274 818.01 681.409 821.369 681.631L822.917 674.128C837.972 675.025 853.08 674.287 867.977 671.928C867.977 676.291 866.764 680.569 864.475 684.283C862.185 687.997 858.908 691.001 855.011 692.962Z" fill="black"/>
<path opacity="0.3" d="M844.419 688.34V696.598L845.927 689.182V680.924L844.419 688.34Z" fill="black"/>
<path opacity="0.3" d="M854.32 680.329V688.586L855.01 692.961V684.704L854.32 680.329Z" fill="black"/>
<path d="M822.917 674.152L821.369 681.655C818.01 681.433 816.327 681.298 812.968 680.948C812.968 680.948 812.214 676.129 811.809 673.223C808.458 672.857 806.569 672.619 803.615 672.167C808.188 683.735 822.885 689.23 835.089 689.166C838.216 689.18 841.339 688.915 844.419 688.372L845.927 680.956C849.286 680.782 850.969 680.67 854.32 680.361C854.32 680.361 854.661 682.489 855.011 684.736C860.232 682.125 864.288 677.656 866.381 672.206C852.001 674.373 837.433 675.025 822.917 674.152Z" fill="#263238"/>
<path d="M783.368 657.494C790.927 661.424 801.781 661.551 805.401 652.078C803.957 652.691 802.366 652.873 800.82 652.602C798.292 652.094 796.011 650.744 794.348 648.773C792.686 646.802 791.74 644.326 791.665 641.748C791.665 636.683 795.746 633.459 800.82 634.285C802.891 634.641 804.818 635.577 806.378 636.984C805.52 633.574 803.944 630.386 801.756 627.632C799.568 624.879 796.818 622.624 793.69 621.017C784.162 616.253 772.569 622.01 769.87 631.585C767.004 641.804 774.245 652.777 783.368 657.494Z" fill="#263238"/>
<path d="M783.368 657.494C790.927 661.424 801.781 661.551 805.401 652.078C803.957 652.691 802.366 652.873 800.82 652.602C798.292 652.094 796.011 650.744 794.348 648.773C792.686 646.802 791.74 644.326 791.665 641.748C791.665 636.683 795.746 633.459 800.82 634.285C802.891 634.641 804.818 635.577 806.378 636.984C805.52 633.574 803.944 630.386 801.756 627.632C799.568 624.879 796.818 622.624 793.69 621.017C784.162 616.253 772.569 622.01 769.87 631.585C767.004 641.804 774.245 652.777 783.368 657.494Z" fill="#876A96"/>
<path opacity="0.2" d="M783.368 657.494C790.927 661.424 801.781 661.551 805.401 652.078C803.957 652.691 802.366 652.873 800.82 652.602C798.292 652.094 796.011 650.744 794.348 648.773C792.686 646.802 791.74 644.326 791.665 641.748C791.665 636.683 795.746 633.459 800.82 634.285C802.891 634.641 804.818 635.577 806.378 636.984C805.52 633.574 803.944 630.386 801.756 627.632C799.568 624.879 796.818 622.624 793.69 621.017C784.162 616.253 772.569 622.01 769.87 631.585C767.004 641.804 774.245 652.777 783.368 657.494Z" fill="black"/>
<path d="M788.283 653.706C792.681 655.993 800.621 656.771 804.806 653.444C805.036 653.001 805.24 652.545 805.417 652.078C803.973 652.691 802.382 652.873 800.836 652.602C798.308 652.094 796.027 650.744 794.364 648.773C792.702 646.802 791.756 644.326 791.681 641.748C791.681 636.683 795.762 633.459 800.836 634.285C802.906 634.641 804.833 635.577 806.394 636.984C805.534 633.572 803.956 630.383 801.765 627.63C799.574 624.876 796.821 622.622 793.69 621.017C791.41 619.903 788.906 619.324 786.369 619.324C783.832 619.324 781.328 619.903 779.048 621.017C778.067 622.446 777.324 624.026 776.849 625.694C773.967 635.913 779.144 648.958 788.283 653.706Z" fill="#263238"/>
<path d="M886.771 657.494C879.22 661.424 868.358 661.551 864.737 652.078C866.182 652.691 867.773 652.873 869.318 652.602C871.846 652.094 874.127 650.744 875.79 648.773C877.452 646.802 878.398 644.326 878.473 641.748C878.473 636.683 874.392 633.459 869.318 634.285C867.248 634.641 865.321 635.577 863.76 636.984C864.625 633.57 866.209 630.38 868.405 627.626C870.601 624.873 873.36 622.62 876.496 621.017C886.024 616.253 897.617 622.01 900.316 631.585C903.151 641.804 895.917 652.777 886.771 657.494Z" fill="#263238"/>
<path d="M886.771 657.494C879.22 661.424 868.358 661.551 864.737 652.078C866.182 652.691 867.773 652.873 869.318 652.602C871.846 652.094 874.127 650.744 875.79 648.773C877.452 646.802 878.398 644.326 878.473 641.748C878.473 636.683 874.392 633.459 869.318 634.285C867.248 634.641 865.321 635.577 863.76 636.984C864.625 633.57 866.209 630.38 868.405 627.626C870.601 624.873 873.36 622.62 876.496 621.017C886.024 616.253 897.617 622.01 900.316 631.585C903.151 641.804 895.917 652.777 886.771 657.494Z" fill="#876A96"/>
<path opacity="0.2" d="M886.771 657.494C879.22 661.424 868.358 661.551 864.737 652.078C866.182 652.691 867.773 652.873 869.318 652.602C871.846 652.094 874.127 650.744 875.79 648.773C877.452 646.802 878.398 644.326 878.473 641.748C878.473 636.683 874.392 633.459 869.318 634.285C867.248 634.641 865.321 635.577 863.76 636.984C864.625 633.57 866.209 630.38 868.405 627.626C870.601 624.873 873.36 622.62 876.496 621.017C886.024 616.253 897.617 622.01 900.316 631.585C903.151 641.804 895.917 652.777 886.771 657.494Z" fill="black"/>
<path d="M881.872 653.706C877.481 655.993 869.533 656.771 865.348 653.444C865.118 653.001 864.914 652.545 864.737 652.078C866.182 652.691 867.773 652.873 869.318 652.602C871.846 652.094 874.127 650.744 875.79 648.773C877.452 646.802 878.398 644.326 878.473 641.748C878.473 636.683 874.392 633.459 869.318 634.285C867.248 634.641 865.321 635.577 863.76 636.984C864.625 633.57 866.209 630.38 868.405 627.626C870.601 624.873 873.36 622.62 876.496 621.017C878.776 619.903 881.28 619.324 883.817 619.324C886.354 619.324 888.858 619.903 891.138 621.017C892.119 622.446 892.862 624.026 893.337 625.694C896.187 635.913 891.01 648.958 881.872 653.706Z" fill="#263238"/>
<path d="M743.461 621.811C743.541 615.523 746.439 603.978 751.163 596.887C759.032 585.065 769.227 576.91 783.662 567.748L814.278 594.569C781.518 594.394 770.735 611.942 767.98 621.644C766.075 628.338 764.455 633.515 760.58 633.626C759.599 633.724 758.616 633.453 757.823 632.866C757.031 632.278 756.485 631.417 756.292 630.45C753.688 633.062 749.639 631.673 749.377 628.409C748.716 628.772 747.954 628.908 747.208 628.796C746.462 628.684 745.774 628.331 745.248 627.79C743.668 626.226 743.438 624.042 743.461 621.811Z" fill="#37474F"/>
<path d="M745.256 627.79L745.192 627.718C746.495 628.123 747.654 627.552 748.281 625.932C749.25 623.399 749.528 622.216 750.083 621.636C750.083 621.636 748.996 625.606 749.385 628.409C748.724 628.772 747.962 628.908 747.216 628.796C746.47 628.684 745.782 628.331 745.256 627.79Z" fill="#263238"/>
<path d="M751.822 631.577C753.41 631.474 754.562 630.307 755.062 628.401C755.768 625.741 756.221 624.908 756.769 624.328C756.267 626.322 756.106 628.386 756.292 630.434C755.736 631.033 755.018 631.46 754.225 631.663C753.433 631.865 752.599 631.836 751.822 631.577Z" fill="#263238"/>
<path d="M835.224 648.18C832.27 642.916 829.952 633.84 830.119 625.662C830.396 611.688 832.675 603.66 837.662 593.37L833.168 586.931C833.168 586.931 866.881 572.369 881.085 591.552C853.74 607.114 853.184 626.885 855.542 636.278C857.17 642.773 858.306 647.854 855.13 649.776C854.361 650.335 853.41 650.583 852.467 650.471C851.523 650.36 850.656 649.896 850.04 649.172C849.119 652.594 845.085 653.381 843.307 650.76C842.93 651.38 842.359 651.858 841.684 652.122C841.008 652.386 840.264 652.421 839.567 652.221C837.511 651.745 836.264 650.038 835.224 648.18Z" fill="#37474F"/>
<path d="M839.567 652.285H839.48C840.758 651.991 841.457 650.967 841.195 649.315C840.79 646.743 840.456 645.623 840.631 644.877C840.631 644.877 841.616 648.664 843.307 650.848C842.926 651.463 842.354 651.937 841.679 652.196C841.004 652.456 840.262 652.487 839.567 652.285Z" fill="#263238"/>
<path d="M846.888 652.285C848.134 651.451 848.555 649.903 848.071 648.1C847.38 645.552 847.364 644.639 847.539 643.892C848.074 645.793 848.928 647.589 850.064 649.204C849.886 649.968 849.492 650.665 848.928 651.211C848.365 651.757 847.657 652.13 846.888 652.285Z" fill="#263238"/>
<path d="M773.483 585.779C776.489 588.297 779.739 590.507 783.185 592.378C811.849 608.162 858.321 608.162 886.985 592.378C889.856 590.805 892.596 589.005 895.179 586.994C893.003 585.613 891.153 584.453 889.939 583.707C878.926 577.014 874.289 575.934 873.328 569.653L786.996 561.872L773.483 585.779Z" fill="#37474F"/>
<path d="M873.328 569.653L789.164 564.437L779.874 570.201C782.391 578.753 801.971 594.021 825.307 595.022C854.423 596.3 865.404 586.867 875.591 574.568C874.396 573.171 873.612 571.47 873.328 569.653Z" fill="#263238"/>
<path d="M787.822 569.653C787.822 569.653 794.174 583.016 826.101 584.112C862.895 585.382 870.295 570.844 870.295 570.844L787.822 569.653Z" fill="#876A96"/>
<path opacity="0.25" d="M787.822 569.653C787.822 569.653 794.174 583.016 826.101 584.112C862.895 585.382 870.295 570.844 870.295 570.844L787.822 569.653Z" fill="black"/>
<path d="M814.175 595.562C813.786 593.886 812.841 593.529 811.976 589.821C811.182 586.454 812.468 578.888 821.504 577.339C830.539 575.791 836.121 579.951 837.225 585.502C838.329 591.052 835.438 594.307 832.707 595.768C831.119 596.61 830.635 597.356 830.071 599.246C829.571 600.985 829.031 601.715 827.459 601.35C825.688 600.929 826.665 598.912 825.077 598.666C823.846 598.475 824.283 601.199 821.766 600.969C820.019 600.802 820.043 598.444 819.003 598.206C817.367 597.824 817.272 600.214 815.755 599.841C814.239 599.468 814.54 597.142 814.175 595.562Z" fill="#FAFAFA"/>
<path d="M837.257 585.502C836.153 579.944 830.603 575.783 821.535 577.339C816.398 578.221 813.762 581.023 812.587 583.906C815.414 580.499 822.909 578.602 829.737 580.936C836.566 583.27 836.343 590.178 835.081 592.64C834.362 593.945 833.403 595.103 832.254 596.054L832.739 595.768C835.47 594.307 838.36 591.06 837.257 585.502Z" fill="#E0E0E0"/>
<path d="M822.615 591.385C820.98 591.33 819.439 594.601 820.233 594.95C821.027 595.3 821.313 594.394 822.345 594.545C822.941 594.641 823.743 595.879 824.457 595.474C825.172 595.069 824.037 591.425 822.615 591.385Z" fill="#263238"/>
<path d="M827.197 585.946C825.545 586.947 825.355 590.345 827.324 591.774C829.293 593.203 832.636 592.91 832.882 590.488C833.136 587.891 829.555 584.493 827.197 585.946Z" fill="#263238"/>
<path d="M819.098 585.287C820.535 586.137 820.686 589.082 819.026 590.337C817.367 591.591 814.429 591.361 814.207 589.257C813.976 586.994 817.065 584.056 819.098 585.287Z" fill="#263238"/>
<path d="M859.933 496.788C887.191 494.517 907.232 517.345 903.842 525.666C901.38 531.7 867.476 527.174 867.476 527.174C867.476 527.174 848.666 506.681 859.933 496.788Z" fill="#263238"/>
<path d="M872.669 507.658C869.958 513.862 868.207 520.443 867.476 527.174C867.476 527.174 901.086 531.573 903.842 525.666C904.755 521.807 893.901 506.872 872.669 507.658Z" fill="#FFA8A7"/>
<path d="M879.632 526.023C880.735 525.423 881.917 524.98 883.142 524.705C884.611 523.689 886.318 522.49 888.049 521.188C886.802 518.012 883.285 515.717 883.285 515.717C884.992 513.398 888.708 512.358 888.708 512.358C886.842 509.976 878.981 507.507 874.36 511.509C874.36 511.509 874.559 517.194 874.805 520.362C875.527 522.037 876.234 523.538 876.83 524.689C877.64 525.357 878.603 525.815 879.632 526.023Z" fill="#F28F8F"/>
<path d="M874.765 511.795C878.632 509.659 885.881 511.683 887.739 514.065C887.739 514.065 884.023 515.098 882.324 517.424C882.324 517.424 889.208 521.815 887.175 526.952C887.175 526.952 884.071 524.848 878.441 527.809C870.454 526.094 874.765 511.795 874.765 511.795Z" fill="#37474F"/>
<path d="M802.884 495.986C777.476 485.815 751.64 501.75 752.442 510.699C753.013 517.194 786.758 522.823 786.758 522.823C786.758 522.823 810.745 508.769 802.884 495.986Z" fill="#263238"/>
<path d="M787.52 502.64C788.28 509.369 788.012 516.174 786.726 522.823C786.726 522.823 753.299 517.154 752.41 510.699C752.696 506.737 767.488 495.652 787.52 502.64Z" fill="#FFA8A7"/>
<path d="M775.475 518.146C774.596 517.251 773.597 516.481 772.506 515.86C771.394 514.454 770.124 512.811 768.854 511.056C770.973 508.364 775.039 507.237 775.039 507.237C774.094 504.521 770.846 502.473 770.846 502.473C773.332 500.75 781.565 500.694 784.813 505.871C784.813 505.871 782.955 511.247 781.788 514.208C780.605 515.59 779.501 516.789 778.612 517.742C777.618 518.141 776.538 518.28 775.475 518.146Z" fill="#F28F8F"/>
<path d="M784.305 505.974C781.24 502.798 773.713 502.608 771.236 504.339C771.236 504.339 774.483 506.419 775.428 509.103C775.428 509.103 767.551 511.286 767.988 516.805C767.988 516.805 771.569 515.701 776.047 520.179C784.225 520.91 784.305 505.974 784.305 505.974Z" fill="#37474F"/>
<path d="M823.862 579.348C872.677 583.802 891.82 554.663 891.82 554.663L888.97 551.145L896.33 546.484C896.33 546.484 895.965 542.173 881.991 518.814C868.016 495.454 851.445 487.609 831.294 486.061C811.142 484.513 793.579 489.737 776.206 510.675C758.833 531.613 757.809 535.829 757.809 535.829L764.375 541.562L760.985 544.634C760.985 544.634 775.039 574.902 823.862 579.348Z" fill="#37474F"/>
<path d="M820.36 486.633C821.948 480.852 819.511 476.914 818.971 474.723C818.431 472.531 825.688 474.103 829.864 479.01C834.041 483.917 834.811 487.077 834.811 487.077L820.36 486.633Z" fill="#37474F"/>
<path d="M841.536 490.277C842.156 485.783 845.038 483.79 846.062 482.448C847.086 481.106 841.584 480.003 837.217 482.162C832.85 484.322 831.373 486.283 831.373 486.283L841.536 490.277Z" fill="#37474F"/>
<path d="M824.966 572.845C797.97 570.9 795.349 555.163 800.002 547.207C804.655 539.251 814.604 534.836 827.506 535.765C840.409 536.694 849.659 542.499 853.176 551.05C856.694 559.601 851.938 574.79 824.966 572.845Z" fill="#455A64"/>
<path d="M811.356 552.995C811.261 554.821 811.078 556.171 812.357 556.028C813.635 555.885 815.048 553.575 815.048 553.575L811.356 552.995Z" fill="white"/>
<path d="M840.607 555.068C840.425 556.886 840.393 558.243 839.154 557.91C837.916 557.577 836.875 555.075 836.875 555.075L840.607 555.068Z" fill="white"/>
<path d="M791.006 521.092C790.277 523.87 790.567 526.818 791.824 529.401C793.081 531.983 795.222 534.03 797.858 535.17C802.622 537.203 808.117 535.964 812.222 531.589C813.198 524.713 808.561 519.068 803.488 517.916C798.414 516.765 795.016 518.385 791.006 521.092Z" fill="#876A96"/>
<path d="M810.674 528.437C810.39 529.812 809.703 531.071 808.702 532.055C807.701 533.04 806.43 533.704 805.05 533.964C803.671 534.225 802.245 534.069 800.954 533.517C799.663 532.965 798.565 532.042 797.8 530.865C797.034 529.688 796.636 528.31 796.656 526.906C796.675 525.503 797.111 524.136 797.909 522.981C798.707 521.826 799.83 520.933 801.135 520.417C802.441 519.902 803.871 519.786 805.243 520.084C806.148 520.275 807.006 520.644 807.769 521.167C808.532 521.691 809.184 522.359 809.689 523.135C810.193 523.911 810.54 524.778 810.709 525.688C810.878 526.598 810.866 527.532 810.674 528.437Z" fill="#263238"/>
<path d="M799.534 523.133C799.489 523.63 799.298 524.104 798.985 524.492C798.671 524.881 798.25 525.169 797.773 525.318C797.296 525.467 796.786 525.471 796.307 525.33C795.827 525.19 795.401 524.91 795.081 524.526C794.76 524.143 794.561 523.673 794.508 523.176C794.455 522.679 794.551 522.178 794.783 521.736C795.014 521.293 795.372 520.93 795.811 520.691C796.25 520.452 796.75 520.348 797.247 520.394C797.913 520.454 798.528 520.776 798.957 521.29C799.386 521.804 799.593 522.466 799.534 523.133Z" fill="white"/>
<path d="M798.724 527.825C798.684 527.595 798.311 527.301 798.057 527.182C797.761 527.034 797.453 526.912 797.136 526.817C796.386 526.583 795.583 526.583 794.833 526.817C794.57 526.932 794.345 527.119 794.183 527.356C794.022 527.594 793.93 527.872 793.92 528.159C793.898 528.286 793.903 528.416 793.936 528.541C793.969 528.666 794.028 528.782 794.111 528.881C794.329 529.024 794.589 529.09 794.849 529.072C795.341 528.99 795.814 528.821 796.246 528.572C796.911 528.325 797.605 528.165 798.311 528.095C798.652 528.119 798.756 527.968 798.724 527.825Z" fill="white"/>
<path d="M788.926 536.377L789.013 536.337C789.236 536.203 789.401 535.989 789.473 535.739C789.545 535.488 789.52 535.22 789.402 534.987C786.814 529.795 781.716 523.697 772.101 524.094C771.849 524.124 771.618 524.249 771.453 524.443C771.289 524.636 771.204 524.885 771.215 525.138C771.226 525.392 771.333 525.632 771.513 525.811C771.693 525.99 771.935 526.094 772.188 526.102C780.819 525.745 785.408 531.24 787.735 535.916C787.835 536.132 788.016 536.301 788.238 536.386C788.46 536.472 788.706 536.469 788.926 536.377Z" fill="#263238"/>
<path d="M786.044 538.552C786.144 538.509 786.236 538.447 786.314 538.37C786.502 538.187 786.613 537.939 786.627 537.677C786.64 537.415 786.554 537.157 786.385 536.956C783.471 533.471 777.31 531.525 773.602 531.97C773.358 532.024 773.143 532.166 772.998 532.369C772.853 532.573 772.789 532.822 772.817 533.07C772.846 533.318 772.966 533.547 773.153 533.712C773.34 533.877 773.582 533.966 773.832 533.963C777.064 533.582 782.526 535.344 784.948 538.282C785.075 538.442 785.251 538.556 785.45 538.605C785.648 538.654 785.857 538.635 786.044 538.552Z" fill="#263238"/>
<path d="M786.107 542.689C786.289 542.598 786.437 542.45 786.528 542.268C786.649 542.035 786.677 541.764 786.606 541.51C786.535 541.257 786.371 541.04 786.147 540.903C782.177 538.521 774.928 537.576 768.361 540.982C768.133 541.11 767.963 541.32 767.886 541.57C767.809 541.82 767.831 542.09 767.948 542.324C767.997 542.438 768.069 542.542 768.159 542.628C768.249 542.714 768.355 542.781 768.472 542.825C768.588 542.868 768.712 542.888 768.837 542.882C768.961 542.877 769.083 542.846 769.195 542.792C775.15 539.688 781.661 540.553 785.226 542.665C785.359 542.743 785.509 542.786 785.663 542.791C785.818 542.795 785.97 542.76 786.107 542.689Z" fill="#263238"/>
<path d="M865.841 541.943L865.761 541.887C865.562 541.718 865.434 541.48 865.403 541.221C865.372 540.962 865.44 540.7 865.594 540.49C868.985 535.789 875.011 530.596 884.436 532.55C884.686 532.612 884.902 532.77 885.035 532.99C885.169 533.21 885.211 533.474 885.151 533.725C885.102 533.979 884.957 534.204 884.744 534.353C884.532 534.501 884.271 534.561 884.015 534.519C875.559 532.764 870.144 537.441 867.087 541.665C866.957 541.865 866.754 542.006 866.521 542.058C866.288 542.11 866.044 542.068 865.841 541.943Z" fill="#263238"/>
<path d="M868.326 544.547C868.236 544.491 868.158 544.418 868.096 544.333C867.94 544.12 867.869 543.857 867.899 543.595C867.928 543.333 868.055 543.092 868.254 542.919C871.692 539.95 878.092 539.037 881.673 540.069C881.796 540.108 881.91 540.17 882.008 540.253C882.106 540.336 882.187 540.438 882.247 540.552C882.306 540.667 882.341 540.791 882.352 540.92C882.363 541.048 882.348 541.177 882.308 541.3C882.278 541.423 882.223 541.539 882.147 541.641C882.071 541.743 881.976 541.829 881.867 541.894C881.757 541.959 881.636 542.002 881.51 542.02C881.384 542.038 881.256 542.03 881.133 541.998C877.957 541.101 872.32 541.998 869.422 544.46C869.273 544.591 869.086 544.671 868.888 544.687C868.691 544.702 868.493 544.653 868.326 544.547Z" fill="#263238"/>
<path d="M867.571 548.62C867.407 548.503 867.284 548.336 867.222 548.144C867.142 547.894 867.159 547.623 867.269 547.385C867.38 547.147 867.575 546.958 867.818 546.858C872.137 545.174 879.434 545.389 885.357 549.811C885.561 549.974 885.695 550.208 885.732 550.467C885.769 550.725 885.706 550.987 885.556 551.201C885.488 551.305 885.4 551.396 885.298 551.466C885.195 551.536 885.079 551.586 884.957 551.611C884.835 551.636 884.709 551.636 884.587 551.612C884.465 551.588 884.349 551.54 884.246 551.471C878.87 547.445 872.336 547.239 868.445 548.739C868.302 548.799 868.146 548.819 867.992 548.798C867.839 548.777 867.693 548.716 867.571 548.62Z" fill="#263238"/>
<path d="M801.145 514.621C800.523 514.285 799.865 514.019 799.184 513.827C797.652 513.313 796.03 513.124 794.42 513.271C793.973 513.282 793.535 513.399 793.142 513.613C792.634 514.002 793.285 514.685 793.722 514.748C793.919 514.776 794.12 514.776 794.317 514.748C795.533 514.558 796.765 514.499 797.993 514.573C799.057 514.645 800.089 514.732 801.169 514.899C801.273 514.859 801.209 514.621 801.145 514.621Z" fill="#455A64"/>
<path d="M804.623 514.312C804.257 513.701 803.825 513.131 803.337 512.612C802.269 511.405 800.967 510.427 799.51 509.738C799.119 509.527 798.684 509.411 798.239 509.397C797.596 509.476 797.819 510.397 798.168 510.667C798.328 510.787 798.505 510.883 798.692 510.953C799.835 511.406 800.929 511.976 801.955 512.652C802.837 513.248 803.686 513.843 804.504 514.518C804.599 514.621 804.655 514.375 804.623 514.312Z" fill="#455A64"/>
<path d="M863.919 525.793C864.285 528.643 863.618 531.529 862.039 533.929C860.46 536.33 858.074 538.085 855.312 538.878C850.342 540.275 845.038 538.362 841.528 533.479C841.441 526.531 846.769 521.529 851.906 521.029C857.043 520.529 860.291 522.561 863.919 525.793Z" fill="#876A96"/>
<path d="M851.106 536.953C854.999 536.623 857.89 533.228 857.563 529.37C857.237 525.512 853.816 522.651 849.922 522.981C846.029 523.311 843.138 526.706 843.465 530.564C843.791 534.422 847.212 537.283 851.106 536.953Z" fill="#263238"/>
<path d="M855.145 526.603C855.127 527.1 855.256 527.592 855.517 528.015C855.778 528.439 856.159 528.776 856.611 528.984C857.063 529.191 857.567 529.26 858.058 529.181C858.55 529.103 859.007 528.88 859.372 528.542C859.737 528.204 859.993 527.765 860.109 527.281C860.224 526.796 860.194 526.289 860.021 525.822C859.848 525.356 859.541 524.951 859.138 524.658C858.735 524.366 858.255 524.2 857.758 524.181C857.091 524.157 856.441 524.399 855.952 524.853C855.462 525.306 855.172 525.936 855.145 526.603Z" fill="white"/>
<path d="M855.336 531.359C855.408 531.144 855.82 530.898 856.082 530.811C856.395 530.701 856.716 530.619 857.043 530.565C857.82 530.437 858.617 530.548 859.33 530.882C859.571 531.036 859.767 531.252 859.895 531.508C860.024 531.764 860.081 532.05 860.06 532.335C860.06 532.565 859.989 532.907 859.775 533.034C859.527 533.151 859.248 533.181 858.981 533.121C858.503 532.975 858.054 532.747 857.655 532.446C857.029 532.118 856.365 531.87 855.677 531.708C855.384 531.629 855.296 531.502 855.336 531.359Z" fill="white"/>
<path d="M854.693 518.051C855.355 517.788 856.045 517.599 856.749 517.487C858.325 517.183 859.946 517.201 861.513 517.543C861.953 517.612 862.37 517.786 862.728 518.051C863.189 518.496 862.45 519.091 862.014 519.099C861.812 519.095 861.611 519.063 861.418 519.004C860.237 518.662 859.024 518.446 857.797 518.361C856.733 518.297 855.701 518.25 854.621 518.281C854.534 518.289 854.629 518.075 854.693 518.051Z" fill="#455A64"/>
<path d="M851.287 517.321C851.724 516.757 852.225 516.246 852.779 515.796C853.989 514.727 855.405 513.916 856.94 513.414C857.354 513.254 857.8 513.194 858.242 513.24C858.869 513.398 858.528 514.28 858.155 514.502C857.979 514.604 857.789 514.679 857.591 514.724C856.398 515.024 855.24 515.45 854.137 515.995C853.192 516.471 852.271 516.956 851.374 517.519C851.271 517.607 851.239 517.376 851.287 517.321Z" fill="#455A64"/>
<path d="M826.99 544.793C827.253 546.745 826.737 548.722 825.553 550.296C824.307 551.871 822.608 553.026 820.686 553.607C818.826 554.201 816.859 554.383 814.921 554.139C812.999 553.955 811.174 553.209 809.673 551.995C811.376 552.634 813.182 552.954 815.001 552.94C816.768 552.953 818.526 552.685 820.209 552.146C821.884 551.666 823.412 550.777 824.656 549.557C825.874 548.225 826.684 546.572 826.99 544.793Z" fill="#263238"/>
<path d="M826.99 544.793C827.044 546.59 827.611 548.335 828.626 549.819C829.662 551.212 831.025 552.327 832.596 553.067C834.178 553.862 835.878 554.398 837.63 554.655C839.426 554.937 841.259 554.886 843.037 554.504C841.375 555.483 839.461 555.952 837.535 555.854C835.58 555.815 833.658 555.346 831.905 554.48C830.102 553.625 828.604 552.24 827.61 550.51C827.132 549.646 826.832 548.695 826.725 547.714C826.619 546.732 826.709 545.74 826.99 544.793Z" fill="#263238"/>
<path d="M826.887 545.865L821.797 542.626C821.797 542.626 822.774 540.188 827.221 540.379C831.667 540.569 832.302 543.197 832.302 543.197L826.887 545.865Z" fill="#263238"/>
<path d="M796.183 427.281C794.436 427.789 792.713 428.345 791.03 428.933C789.347 429.52 787.854 430.116 786.266 430.767C791.181 432.998 796.286 435.634 801.265 438.397C812.96 444.884 823.965 452.054 830.23 456.254C831.738 457.27 832.969 458.112 833.874 458.731L834.748 459.327L835.542 459.899C835.629 459.668 836.78 458.882 838.781 457.731L838.868 457.675C839.154 457.501 839.464 457.326 839.79 457.151C849.538 451.861 859.65 447.268 870.049 443.407C876.401 441.025 883.277 438.691 890.447 436.714C887.336 434.98 884.132 433.421 880.847 432.045C876.487 430.239 872.019 428.707 867.468 427.456C849.968 422.69 831.703 421.401 813.707 423.66C807.799 424.411 801.959 425.619 796.239 427.273L796.183 427.281Z" fill="#876A96"/>
<path opacity="0.25" d="M796.183 427.281C794.436 427.789 792.713 428.345 791.03 428.933C789.347 429.52 787.854 430.116 786.266 430.767C791.181 432.998 796.286 435.634 801.265 438.397C812.96 444.884 823.965 452.054 830.23 456.254C831.738 457.27 832.969 458.112 833.874 458.731L834.748 459.327L835.542 459.899C835.629 459.668 836.78 458.882 838.781 457.731L838.868 457.675C839.154 457.501 839.464 457.326 839.79 457.151C849.538 451.861 859.65 447.268 870.049 443.407C876.401 441.025 883.277 438.691 890.447 436.714C887.336 434.98 884.132 433.421 880.847 432.045C876.487 430.239 872.019 428.707 867.468 427.456C849.968 422.69 831.703 421.401 813.707 423.66C807.799 424.411 801.959 425.619 796.239 427.273L796.183 427.281Z" fill="black"/>
<path opacity="0.1" d="M796.183 427.281C794.436 427.789 792.713 428.345 791.03 428.933C789.347 429.52 787.854 430.116 786.266 430.767C791.181 432.998 796.286 435.634 801.265 438.397C812.96 444.884 823.965 452.054 830.23 456.254C831.738 457.271 832.969 458.112 833.874 458.731L834.748 459.327L835.542 459.899C835.629 459.668 836.78 458.882 838.781 457.731L838.868 457.675C839.154 457.501 839.464 457.326 839.79 457.151C849.538 451.861 859.65 447.268 870.049 443.407C876.401 441.025 883.277 438.691 890.447 436.714C887.336 434.98 884.132 433.421 880.847 432.045C876.487 430.239 872.019 428.707 867.468 427.456C862.569 429.838 843.069 433.99 833.668 432.22C826.744 430.894 817.573 427.178 813.707 423.676C807.799 424.427 801.959 425.635 796.239 427.289L796.183 427.281Z" fill="black"/>
<path d="M917.84 475.016C916.899 474.15 915.896 473.354 914.838 472.634C901.793 463.853 886.747 460.105 873.241 458.803C865.195 458.062 857.098 458.035 849.048 458.724L848.174 458.795C844.458 459.136 841.354 459.589 839.059 459.93H838.868C837.574 460.145 836.558 460.327 835.843 460.47L835.597 460.518L834.7 460.709C834.7 460.518 834.7 460.327 834.7 460.129C834.7 459.93 834.7 459.787 834.7 459.613C834.7 459.438 834.7 459.406 834.7 459.311C834.7 458.724 834.811 458.12 834.898 457.501C834.898 457.223 834.978 456.945 835.033 456.659C835.451 454.211 836.199 451.831 837.257 449.585C841.012 441.708 849.699 433.816 869.223 432.061C873.061 431.728 876.922 431.728 880.76 432.061C884.111 433.428 887.383 434.984 890.558 436.722C892.495 437.78 894.366 438.913 896.171 440.12C904.318 445.511 910.162 451.585 913.735 457.89C916.07 461.895 917.483 466.371 917.871 470.991C917.965 472.332 917.954 473.677 917.84 475.016Z" fill="#876A96"/>
<path opacity="0.1" d="M917.84 475.016C916.899 474.15 915.896 473.354 914.838 472.634C901.793 463.853 886.747 460.105 873.241 458.803C865.195 458.062 857.098 458.035 849.048 458.724L848.174 458.795C844.458 459.136 841.354 459.589 839.059 459.93H838.868C837.574 460.145 836.558 460.327 835.843 460.47L835.597 460.518L834.7 460.709C834.7 460.518 834.7 460.327 834.7 460.129C834.7 459.93 834.7 459.787 834.7 459.613C834.7 459.438 834.7 459.406 834.7 459.311C834.7 458.724 834.811 458.12 834.898 457.501C834.898 457.223 834.978 456.945 835.033 456.659C835.451 454.211 836.199 451.831 837.257 449.585C841.012 441.708 849.699 433.816 869.223 432.061C873.061 431.728 876.922 431.728 880.76 432.061C884.111 433.428 887.383 434.984 890.558 436.722C892.495 437.78 894.366 438.913 896.171 440.12C904.318 445.511 910.162 451.585 913.735 457.89C916.07 461.895 917.483 466.371 917.871 470.991C917.965 472.332 917.954 473.677 917.84 475.016Z" fill="black"/>
<path opacity="0.1" d="M917.84 475.016C916.899 474.15 915.896 473.354 914.838 472.634C901.793 463.853 886.747 460.105 873.241 458.803C865.195 458.062 857.098 458.035 849.048 458.724L848.174 458.795C844.458 459.136 841.354 459.589 839.059 459.93H838.868C837.574 460.145 836.558 460.327 835.843 460.47L835.597 460.518L834.7 460.709C834.7 460.518 834.7 460.327 834.7 460.129C834.7 459.93 834.7 459.788 834.7 459.613C834.7 459.438 834.7 459.406 834.7 459.311C834.7 458.724 834.811 458.12 834.898 457.501C834.898 457.223 834.978 456.945 835.033 456.659C835.451 454.211 836.199 451.831 837.257 449.585C841.012 441.708 849.699 433.816 869.223 432.061C861.521 435.666 855.558 441.057 870.017 443.391C882.102 445.345 899.633 448.251 913.592 457.866C915.927 461.871 917.341 466.347 917.729 470.967C917.87 472.312 917.908 473.666 917.84 475.016Z" fill="black"/>
<path opacity="0.1" d="M838.757 461.423L837.685 461.058C837.209 460.907 836.59 460.701 835.82 460.47L835.407 460.343C835.184 460.288 834.954 460.216 834.708 460.137C831.794 459.287 827.435 458.136 822.067 457.128C821.655 457.04 821.273 456.969 820.813 456.889C813.997 455.646 807.095 454.929 800.169 454.746C786.75 454.452 771.585 456.334 757.793 463.36C757.012 463.758 756.266 464.22 755.562 464.742C755.647 463.239 755.859 461.746 756.197 460.28C757.391 455.315 759.748 450.705 763.073 446.829L763.367 446.686C777.437 439.771 792.269 439.795 801.328 438.389C804.552 437.889 807.037 437.198 808.474 435.952C812.341 432.649 802.122 429.735 791.046 428.925C792.729 428.337 794.452 427.781 796.199 427.273H796.572C800.411 427.438 804.229 427.935 807.982 428.758C826.768 432.823 834.486 441.462 837.36 449.608C838.212 452.031 838.712 454.563 838.845 457.128C838.845 457.31 838.845 457.485 838.845 457.66V457.739C838.845 458.507 838.845 459.245 838.845 459.954C838.849 459.999 838.849 460.044 838.845 460.089C838.821 460.558 838.789 461.01 838.757 461.423Z" fill="black"/>
<path d="M917.84 475.016C917.371 481.63 914.473 488.094 909.193 493.922C907.43 495.858 905.507 497.643 903.445 499.257C902.428 500.067 901.37 500.861 900.269 501.639C895.552 492.286 889.597 483.663 882.491 477.645C879.394 475.016 856.043 465.449 852.954 463.313C850.818 461.495 847.952 460.232 848.19 458.811C848.205 458.714 848.234 458.62 848.277 458.533C848.809 457.358 851.573 456.056 858.599 454.222C865.323 452.421 872.31 451.811 879.243 452.419C879.648 452.459 880.037 452.499 880.458 452.554H880.657C881.046 452.602 881.451 452.649 881.824 452.713L882.3 452.776C883.269 452.927 884.246 453.11 885.222 453.308H885.429L886.921 453.658C887.453 453.785 887.985 453.928 888.509 454.071C889.033 454.214 889.438 454.333 889.899 454.476C890.089 454.523 890.272 454.587 890.447 454.642C890.86 454.769 891.241 454.896 891.67 455.039H891.749C892.289 455.214 892.829 455.413 893.337 455.611C894.925 456.199 896.584 456.889 898.212 457.668L899.006 458.057C899.554 458.327 900.102 458.596 900.65 458.89L901.444 459.335C901.999 459.637 902.547 459.938 903.103 460.256C908.333 463.308 913.241 466.881 917.752 470.919C917.889 472.281 917.918 473.651 917.84 475.016Z" fill="#876A96"/>
<path opacity="0.1" d="M900.022 481.027C903.484 485.022 906.555 489.34 909.193 493.922C907.43 495.858 905.507 497.643 903.445 499.257C902.428 500.067 901.37 500.861 900.269 501.639C895.552 492.286 889.597 483.663 882.491 477.645C879.394 475.016 856.043 465.449 852.954 463.313C850.818 461.495 847.952 460.232 848.19 458.811C848.205 458.714 848.234 458.62 848.277 458.533C848.809 457.358 851.573 456.056 858.599 454.222C865.323 452.421 872.31 451.811 879.243 452.419C879.648 452.459 880.037 452.499 880.458 452.554H880.657C881.046 452.602 881.451 452.649 881.824 452.713L882.3 452.776C883.269 452.927 884.246 453.11 885.222 453.308H885.429L886.921 453.658C887.453 453.785 887.985 453.928 888.509 454.071C889.033 454.214 889.438 454.333 889.899 454.476C890.089 454.523 890.272 454.587 890.447 454.642C890.86 454.769 891.241 454.896 891.669 455.039H891.749C892.289 455.214 892.829 455.413 893.337 455.611C894.925 456.207 896.584 456.897 898.212 457.668L899.006 458.057L900.65 458.89L901.444 459.335C901.999 459.637 902.547 459.938 903.103 460.256C889.772 454.46 874.448 453.602 873.153 458.724C873.136 458.786 873.122 458.85 873.114 458.914C872.248 464.321 888.7 468.283 900.022 481.027Z" fill="black"/>
<path d="M886.485 479.391C874.281 469.022 860.164 461.757 849.048 458.747C848.786 458.668 848.524 458.604 848.254 458.541C845.521 457.789 842.715 457.336 839.885 457.191C839.528 457.191 839.186 457.191 838.837 457.191C838.337 457.191 837.852 457.191 837.376 457.239C836.573 457.289 835.777 457.406 834.994 457.588C834.423 457.715 833.865 457.893 833.326 458.12L833.954 458.763L834.795 459.661C835.002 459.875 835.216 460.113 835.454 460.383C835.514 460.437 835.57 460.496 835.621 460.558L836.463 461.495L836.82 461.9C842.243 468.013 852.621 480.844 858.306 495.049C860.903 501.559 863.114 508.216 864.928 514.986C866.389 514.732 867.836 514.454 869.271 514.153C877.173 512.543 884.84 509.942 892.09 506.411C894.929 505.016 897.667 503.424 900.284 501.647C901.407 500.885 902.465 500.091 903.46 499.265C898.953 491.738 893.215 485.02 886.485 479.391Z" fill="#876A96"/>
<path opacity="0.15" d="M886.485 479.391C874.281 469.022 860.164 461.757 849.048 458.747C848.786 458.668 848.524 458.604 848.254 458.541C845.521 457.789 842.715 457.336 839.885 457.191C839.528 457.191 839.186 457.191 838.837 457.191C838.337 457.191 837.852 457.191 837.376 457.239C836.573 457.289 835.777 457.406 834.994 457.588C834.423 457.715 833.865 457.893 833.326 458.12L833.954 458.763L834.795 459.661C835.002 459.875 835.216 460.113 835.454 460.383C835.514 460.437 835.57 460.496 835.621 460.558L836.463 461.495L836.82 461.9C842.243 468.013 852.621 480.844 858.306 495.049C860.903 501.559 863.114 508.216 864.928 514.986C866.389 514.732 867.836 514.454 869.271 514.153C877.173 512.543 884.84 509.942 892.09 506.411C894.929 505.016 897.667 503.424 900.284 501.647C901.407 500.885 902.465 500.091 903.46 499.265C898.953 491.738 893.215 485.02 886.485 479.391Z" fill="white"/>
<path d="M823.139 456.604C822.809 456.832 822.448 457.014 822.067 457.143C819.987 457.937 816.224 458.43 814.231 459.74C810.904 461.479 792.888 469.649 789.498 471.872C781.828 476.89 774.959 484.576 769.179 493.072C767.909 491.929 766.728 490.761 765.638 489.57C763.712 487.51 761.989 485.268 760.493 482.877C756.809 476.954 755.165 470.792 755.522 464.758C755.607 463.255 755.819 461.762 756.158 460.296C764.161 454.928 771.736 451.403 778.961 449.386C779.366 449.275 779.755 449.164 780.16 449.069C780.565 448.973 780.954 448.862 781.351 448.767L782.407 448.529L783.717 448.251L784.964 448.028L785.925 447.87L786.242 447.822L787.322 447.671C788.497 447.512 789.664 447.401 790.816 447.338L791.967 447.274L793.102 447.234C793.476 447.234 793.849 447.234 794.222 447.234C801.714 447.288 809.127 448.767 816.065 451.593C823.068 454.364 824.322 455.698 823.139 456.604Z" fill="#876A96"/>
<path opacity="0.1" d="M823.139 456.604C822.809 456.832 822.448 457.014 822.068 457.143C819.987 457.937 816.224 458.43 814.231 459.74C810.904 461.479 792.888 469.649 789.498 471.872C781.828 476.89 774.959 484.576 769.179 493.072C767.909 491.929 766.728 490.761 765.638 489.57C763.712 487.51 761.989 485.268 760.493 482.877C775.69 462.559 794.635 461.113 798.994 456.913C799.639 456.372 800.046 455.6 800.129 454.761C800.248 450.72 789.069 447.615 778.961 449.386C779.366 449.275 779.755 449.164 780.16 449.069C780.565 448.973 780.954 448.862 781.351 448.767L782.407 448.529L783.717 448.251L784.964 448.028L785.925 447.87L786.242 447.822L787.322 447.671C788.497 447.52 789.664 447.409 790.816 447.338L791.967 447.274L793.102 447.234C793.476 447.234 793.849 447.234 794.222 447.234C801.714 447.288 809.127 448.767 816.065 451.593C823.068 454.364 824.322 455.698 823.139 456.604Z" fill="black"/>
<path d="M840.679 458.509C840.12 458.201 839.539 457.935 838.94 457.715H838.853C838.384 457.54 837.892 457.374 837.36 457.231C836.661 457.04 835.915 456.873 835.113 456.739C833.508 456.481 831.887 456.338 830.261 456.31C827.874 456.267 825.487 456.383 823.115 456.659C822.321 456.739 821.583 456.842 820.789 456.961C808.224 458.972 796.229 463.63 785.599 470.626C777.827 475.675 771.054 482.117 765.622 489.626C766.712 490.817 767.893 491.984 769.163 493.128C771.696 495.401 774.395 497.482 777.238 499.352C783.74 503.592 790.737 507.018 798.073 509.555C799.494 510.048 800.931 510.532 802.392 510.985C805.01 504.549 808 498.271 811.348 492.183C818.741 478.796 830.627 467.338 836.756 461.939L837.042 461.685L837.67 461.137L838.821 460.145L839.019 459.978C840.083 459.089 840.695 458.604 840.695 458.604L840.679 458.509Z" fill="#876A96"/>
<path opacity="0.15" d="M840.679 458.509C840.12 458.201 839.539 457.935 838.94 457.715H838.853C838.384 457.54 837.892 457.374 837.36 457.231C836.661 457.04 835.915 456.873 835.113 456.739C833.508 456.481 831.887 456.338 830.261 456.31C827.874 456.267 825.487 456.383 823.115 456.659C822.321 456.739 821.583 456.842 820.789 456.961C808.224 458.972 796.229 463.63 785.599 470.626C777.827 475.675 771.054 482.117 765.622 489.626C766.712 490.817 767.893 491.984 769.163 493.128C771.696 495.401 774.395 497.482 777.238 499.352C783.74 503.592 790.737 507.018 798.073 509.555C799.494 510.048 800.931 510.532 802.392 510.985C805.01 504.549 808 498.271 811.348 492.183C818.741 478.796 830.627 467.338 836.756 461.939L837.042 461.685L837.67 461.137L838.821 460.145L839.019 459.978C840.083 459.089 840.695 458.604 840.695 458.604L840.679 458.509Z" fill="white"/>
<path d="M863.173 493.81C853.859 469.109 842.648 463.067 837.058 461.63L836.415 461.479C835.47 461.249 834.496 461.158 833.525 461.209C833.525 461.209 823.362 459.525 806.195 489.443C803.48 494.207 800.637 501.234 798.081 509.5C799.502 509.992 800.939 510.476 802.4 510.929C822.64 517.059 844.019 518.442 864.88 514.97C866.341 514.716 867.789 514.439 869.223 514.137C867.673 507.231 865.652 500.44 863.173 493.81Z" fill="#876A96"/>
<path opacity="0.3" d="M863.173 493.81C853.859 469.109 842.648 463.067 837.058 461.63L836.415 461.479C835.47 461.249 834.496 461.158 833.525 461.209C833.525 461.209 823.362 459.525 806.195 489.443C803.48 494.207 800.637 501.234 798.081 509.5C799.502 509.992 800.939 510.476 802.4 510.929C822.64 517.059 844.019 518.442 864.88 514.97C866.341 514.716 867.789 514.439 869.223 514.137C867.673 507.231 865.652 500.44 863.173 493.81Z" fill="white"/>
<path d="M823.56 466.282C830.706 461.717 845.752 465.25 849.397 469.712C849.143 461.772 857.639 461.518 861.053 463.162C857.083 458.795 863.046 453.713 868.445 452.427C860.648 450.728 853.248 445.059 852.128 439.382C851.009 433.705 852.446 414.204 845.467 406.637C839.845 400.523 832.119 397.514 829.737 398.157C827.586 398.737 824.179 404.255 821.909 407.01C819.376 410.051 813.659 411.219 811.134 408.797C808.609 406.375 810.419 403.136 811.515 402.675C807.061 403.469 806.164 411.766 809.189 414.625C812.214 417.483 815.35 418.404 820.972 416.078C826.593 413.751 830.214 414.029 831.008 418.301C831.802 422.573 829.007 436.007 824.426 441.772C819.844 447.536 811.253 448.918 808.022 448.918C810.404 449.569 817.645 455.476 811.071 458.962C817.621 457.453 824.696 460.026 823.56 466.282Z" fill="#37474F"/>
<path d="M831.008 434.38C830.075 438.91 827.971 443.117 824.906 446.581C821.841 450.046 817.923 452.647 813.54 454.126C814.143 455.81 813.73 457.596 811.094 459.001C818.09 457.572 829.293 449.021 831.008 434.38Z" fill="#263238"/>
<path d="M835.82 442.05C837.495 431.926 836.844 425.503 836.844 425.503C836.264 434.157 834.906 442.844 828.904 452.403C826.973 455.531 824.687 458.424 822.091 461.026C822.768 461.702 823.262 462.54 823.526 463.459C823.79 464.379 823.815 465.35 823.6 466.282C828.181 459.835 834.184 452.181 835.82 442.05Z" fill="#263238"/>
<path d="M851.525 464.147C850.071 462.081 848.786 459.901 847.682 457.628C844.244 450.736 844.506 438.326 844.736 430.965C844.966 423.605 845.356 415.236 841.894 410.742C845.07 415.998 842.775 428.401 842.846 439.739C842.918 451.077 844.768 462.082 849.397 469.713C849.318 467.084 850.191 465.298 851.525 464.147Z" fill="#263238"/>
<path d="M860.767 457.247C857.658 454.926 855.141 451.903 853.422 448.425C849.691 441.152 848.968 434.816 848.754 426.241C848.352 432.188 848.619 438.162 849.548 444.05C851.231 453.507 857.321 460.431 861.069 463.162C859.266 461.193 859.489 459.089 860.767 457.247Z" fill="#263238"/>
<path d="M690.513 567.68C689.66 566.831 689.035 565.781 688.697 564.626C688.358 563.471 688.316 562.249 688.576 561.074C688.861 559.919 689.433 558.855 690.24 557.98C691.046 557.106 692.061 556.449 693.189 556.072C693.189 556.072 695.166 559.621 694.086 563.139C693.843 564.104 693.399 565.007 692.783 565.79C692.168 566.572 691.394 567.216 690.513 567.68Z" fill="#876A96"/>
<path d="M692.149 562.9C690.307 568.863 691.005 576.025 691.76 582.123C692.45 588.307 693.854 594.39 695.944 600.25C698.582 607.146 702.299 613.578 706.957 619.306C709.282 622.206 711.774 624.969 714.421 627.58C717.477 630.629 720.939 633.32 723.893 636.464C724.528 637.147 723.282 637.933 722.654 637.544C716.183 633.519 710.482 627.222 705.702 621.355C700.554 615.187 696.499 608.183 693.713 600.647C689.521 588.872 687.361 574.524 691.855 562.614C691.95 562.352 692.204 562.702 692.149 562.877V562.9Z" fill="#37474F"/>
<path d="M695.444 619.29C695.444 619.29 691.815 623.332 686.21 619.362C680.604 615.392 679.548 606.872 679.548 606.872C679.548 606.872 687.488 607.976 691.148 610.572C695.587 613.693 695.579 616.527 695.444 619.29Z" fill="#876A96"/>
<path d="M709.839 612.644C709.839 612.644 705.012 610.159 707.457 603.728C709.903 597.296 717.819 594.168 717.819 594.168C717.819 594.168 718.748 602.108 717.176 606.324C715.294 611.366 712.571 612.081 709.839 612.644Z" fill="#876A96"/>
<path d="M687.766 600.163C686.497 600.51 685.16 600.521 683.886 600.193C682.612 599.866 681.445 599.212 680.501 598.297C677.023 595.121 678.23 588.705 678.23 588.705C678.23 588.705 684.82 588.967 687.448 592.882C688.207 593.932 688.641 595.181 688.697 596.475C688.754 597.769 688.43 599.051 687.766 600.163Z" fill="#876A96"/>
<path d="M702.812 594.359C701.893 593.419 701.233 592.257 700.898 590.987C700.563 589.716 700.563 588.38 700.899 587.109C701.979 582.52 708.172 580.448 708.172 580.448C708.172 580.448 711.149 586.331 709.013 590.532C708.468 591.707 707.59 592.696 706.487 593.376C705.385 594.056 704.107 594.398 702.812 594.359Z" fill="#876A96"/>
<path d="M685.384 582.798C684.241 582.98 683.07 582.881 681.973 582.511C680.876 582.14 679.886 581.508 679.088 580.67C676.062 577.748 676.658 571.595 676.658 571.595C676.658 571.595 682.692 572.563 684.312 574.485C685.932 576.406 685.384 582.798 685.384 582.798Z" fill="#876A96"/>
<path d="M703.575 564.083C702.561 564.165 701.58 564.476 700.705 564.993C699.83 565.511 699.084 566.22 698.525 567.069C696.349 570.07 697.683 575.009 697.683 575.009C697.683 575.009 702.669 573.04 703.789 571.134C704.908 569.229 703.575 564.083 703.575 564.083Z" fill="#876A96"/>
<path d="M684.963 612.073C685.924 612.811 687.012 613.454 688.02 614.145C689.028 614.836 690.108 615.471 691.196 616.098C693.364 617.361 695.619 618.48 697.897 619.544C700.041 620.537 702.225 621.45 704.424 622.307C706.623 623.165 708.712 623.617 710.776 624.403C711.379 624.634 710.848 625.507 710.355 625.507C708.203 625.507 705.98 624.507 704.003 623.752C701.788 622.903 699.589 621.998 697.437 621.005C695.245 620.006 693.123 618.86 691.085 617.575C689.894 616.781 688.782 615.987 687.671 615.114C686.678 614.274 685.734 613.378 684.844 612.43C684.733 612.327 684.773 611.89 684.963 612.041V612.073Z" fill="#37474F"/>
<path d="M681.676 593.255C682.271 594.668 683.82 595.828 684.979 596.78C686.138 597.733 687.361 598.861 688.655 599.853C689.943 600.873 691.296 601.81 692.705 602.656C693.546 603.164 694.396 603.664 695.245 604.165C696.095 604.536 696.874 605.052 697.548 605.689C697.786 605.991 697.484 606.697 697.048 606.594C696.085 606.271 695.165 605.831 694.308 605.284C693.411 604.8 692.498 604.339 691.617 603.815C690.066 602.87 688.578 601.825 687.162 600.687C684.78 598.773 681.954 596.526 681.374 593.366C681.327 593.136 681.557 593.009 681.66 593.255H681.676Z" fill="#37474F"/>
<path d="M712.848 602.489C712.482 604.042 711.993 605.563 711.387 607.039C710.891 608.454 710.275 609.825 709.545 611.136C708.838 612.336 708.008 613.459 707.068 614.487C706.274 615.376 705.067 616.646 703.797 616.821C703.447 616.869 702.907 616.535 703.146 616.106C703.471 615.495 704.368 615.114 704.9 614.677C705.36 614.286 705.79 613.862 706.187 613.407C706.974 612.514 707.701 611.57 708.362 610.58C710.085 608 711.784 605.3 712.515 602.251C712.594 601.918 712.904 602.251 712.848 602.489Z" fill="#37474F"/>
<path d="M706.218 585.251C706.29 585.924 706.29 586.603 706.218 587.276C706.073 588.166 705.874 589.046 705.623 589.912C704.581 593.588 702.807 597.015 700.406 599.988C699.438 601.195 698.421 603.212 696.73 603.434C696.661 603.446 696.59 603.441 696.522 603.42C696.455 603.4 696.394 603.364 696.343 603.315C696.292 603.266 696.253 603.207 696.23 603.141C696.206 603.074 696.198 603.004 696.206 602.934C696.469 602.259 696.878 601.652 697.405 601.155C697.866 600.576 698.278 599.964 698.747 599.4C699.776 598.145 700.715 596.818 701.558 595.43C702.46 593.96 703.256 592.426 703.94 590.841C704.311 589.975 704.629 589.086 704.892 588.181C705.178 587.197 705.52 586.188 705.742 585.188C705.74 585.154 705.746 585.119 705.759 585.087C705.771 585.056 705.791 585.027 705.816 585.003C705.841 584.979 705.87 584.961 705.903 584.95C705.935 584.939 705.97 584.935 706.004 584.939C706.038 584.942 706.071 584.953 706.101 584.97C706.13 584.988 706.156 585.011 706.175 585.04C706.195 585.068 706.208 585.1 706.214 585.134C706.22 585.168 706.219 585.202 706.21 585.236L706.218 585.251Z" fill="#37474F"/>
<path d="M679.723 576.446C680.759 577.668 681.881 578.814 683.081 579.876C684.177 580.892 685.217 581.98 686.329 582.981C687.321 583.87 688.338 584.727 689.338 585.617C690.386 586.394 691.292 587.348 692.014 588.435C692.268 588.912 691.577 589.682 691.109 589.285C689.989 588.324 689.012 587.189 687.933 586.212C686.853 585.236 685.789 584.37 684.757 583.362C683.724 582.353 682.875 581.401 682.025 580.352C681.099 579.203 680.265 577.982 679.532 576.7C679.429 576.533 679.532 576.216 679.723 576.438V576.446Z" fill="#37474F"/>
<path d="M701.129 569.332C700.984 570.099 700.796 570.857 700.565 571.603C700.271 572.355 699.937 573.092 699.565 573.81C698.921 575.199 698.187 576.544 697.365 577.835C696.502 579.059 695.532 580.204 694.467 581.258C693.531 582.375 692.465 583.377 691.291 584.243C690.497 584.751 689.846 583.775 690.616 583.227C691.59 582.419 692.476 581.511 693.26 580.519C694.19 579.556 695.07 578.546 695.897 577.494C696.691 576.374 697.389 575.112 698.144 573.977C698.493 573.437 698.834 572.889 699.16 572.333C699.799 571.341 700.314 570.275 700.692 569.157C700.803 568.776 701.177 568.982 701.097 569.316L701.129 569.332Z" fill="#37474F"/>
<path d="M725.441 660.134C725.322 636.433 709.561 629.461 677.309 631.772C677.309 631.772 677.507 649.502 687.21 658.466C699.319 669.654 719.073 668.177 725.441 660.134Z" fill="#876A96"/>
<path opacity="0.3" d="M725.441 660.134C725.322 636.433 709.561 629.461 677.309 631.772C677.309 631.772 677.507 649.502 687.21 658.466C699.319 669.654 719.073 668.177 725.441 660.134Z" fill="black"/>
<path opacity="0.2" d="M683.852 635.25C693.38 639.22 717.2 648.065 725.441 660.134L725.267 654.885C725.267 654.885 719.304 643.793 683.852 635.25Z" fill="black"/>
<path d="M726.537 662.698C710.403 645.325 694.054 650.907 671.918 674.418C671.918 674.418 684.074 687.328 697.278 687.352C713.769 687.391 727.299 672.925 726.537 662.698Z" fill="#876A96"/>
<path opacity="0.2" d="M726.537 662.698C710.403 645.325 694.054 650.907 671.918 674.418C671.918 674.418 684.074 687.328 697.278 687.352C713.769 687.391 727.299 672.925 726.537 662.698Z" fill="black"/>
<path opacity="0.2" d="M679.088 672.544C688.806 668.995 712.293 659.403 726.537 662.698L722.893 658.951C722.893 658.951 710.983 654.822 679.088 672.544Z" fill="black"/>
<path d="M618.975 468.282C620.95 477.684 623.303 486.635 638.011 485.591C622.919 488.729 626.048 497.494 627.774 508.975C624.872 497.755 622.003 489.885 610.129 491.959C622.003 487.378 620.484 482.054 618.975 468.282Z" fill="#E0E0E0"/>
<path d="M1134.69 450.768C1134.8 459.601 1134.47 468.105 1121.04 470.095C1135.22 469.909 1134.15 478.413 1134.84 489.064C1135.22 478.413 1136.21 470.768 1147.26 470.267C1135.84 468.42 1136.14 463.423 1134.69 450.768Z" fill="#455A64"/>
<path d="M590.604 119.072C590.724 129.466 590.333 139.473 574.543 141.807C591.221 141.592 589.956 151.599 590.784 164.112C591.221 151.599 592.38 142.637 605.385 142.021C591.943 139.874 592.289 133.947 590.604 119.072Z" fill="#455A64"/>
<path d="M1103.74 519.01C1103.9 532.51 1103.39 545.495 1082.89 548.53C1104.55 548.244 1102.91 561.229 1103.96 577.493C1104.55 561.229 1106.04 549.561 1122.93 548.788C1105.47 546.054 1105.96 538.294 1103.74 519.01Z" fill="#876A96"/>
<path d="M644.514 207.983C644.665 221.269 644.168 234.068 623.983 237.046C645.297 236.774 643.686 249.558 644.74 265.564C645.357 249.558 646.862 238.077 663.42 237.318C646.215 234.612 646.667 227.024 644.514 207.983Z" fill="#876A96"/>
<path d="M624.78 359.338C624.916 372.094 624.434 384.377 605.062 387.24C625.533 386.983 623.983 399.252 624.976 414.628C625.533 399.252 626.948 388.228 642.904 387.498C626.406 384.921 626.843 377.648 624.78 359.338Z" fill="#876A96"/>
<path d="M1023.99 122.072C1024.14 135.744 1023.63 148.915 1002.92 151.979C1024.85 151.707 1023.19 164.864 1024.28 181.328C1024.85 164.85 1026.38 153.039 1043.48 152.251C1025.72 149.431 1026.19 141.628 1023.99 122.072Z" fill="#EBEBEB"/>
<path d="M1151.44 259.752C1151.57 271.09 1151.14 282 1133.93 284.534C1152.11 284.305 1150.73 295.214 1151.63 308.872C1152.11 295.228 1153.38 285.421 1167.54 284.777C1152.88 282.458 1153.27 276.001 1151.44 259.752Z" fill="#876A96"/>
<path d="M717.263 152.507C717.383 163.831 716.962 174.74 699.757 177.289C717.925 177.06 716.555 187.954 717.443 201.627C717.925 187.969 719.189 178.176 733.369 177.532C718.708 175.213 719.114 168.742 717.263 152.507Z" fill="#EBEBEB"/>
<path d="M1114.51 169.314C1114.62 178.921 1114.26 188.169 1099.67 190.317C1115.08 190.131 1113.91 199.365 1114.72 210.947C1115.14 199.365 1116.23 191.061 1128.27 190.517C1115.75 188.556 1116.06 183.073 1114.51 169.314Z" fill="#E0E0E0"/>
<path d="M1146.6 590.062C1146.71 599.669 1146.35 608.917 1131.75 611.079C1147.16 610.879 1146 620.127 1146.8 631.695C1147.21 620.127 1148.31 611.824 1160.35 611.265C1147.78 609.318 1148.11 603.835 1146.6 590.062Z" fill="#EBEBEB"/>
<path d="M1113.28 346.453C1113.38 356.059 1113.02 365.307 1098.44 367.469C1113.85 367.269 1112.68 376.517 1113.49 388.085C1113.91 376.517 1114.99 368.199 1127.04 367.655C1114.5 365.751 1114.83 360.268 1113.28 346.453Z" fill="#E0E0E0"/>
<path d="M531.049 439.192C531.169 427.868 530.748 416.958 513.543 414.41C531.711 414.639 530.341 403.744 531.229 390.072C531.711 403.73 532.975 413.522 547.155 414.167C532.464 416.486 532.885 422.957 531.049 439.192Z" fill="#EBEBEB"/>
<path d="M64.3843 753.704C64.4897 744.098 64.1285 734.849 49.5426 732.688C64.9563 732.888 63.7973 723.654 64.5951 712.072C65.0015 723.654 66.1003 731.958 78.1423 732.502C65.5584 734.406 65.8896 739.932 64.3843 753.704Z" fill="#E0E0E0"/>
<path d="M389.46 373.806C388.512 382.569 387.145 390.951 372.817 391.217C387.718 392.833 385.577 401.121 385.026 411.76C386.698 401.257 388.657 393.81 400.311 394.717C388.544 391.437 389.459 386.526 389.46 373.806Z" fill="#455A64"/>
<path d="M460.262 497.432C458.817 510.826 456.723 523.623 434.847 524.025C457.609 526.493 454.331 539.147 453.486 555.391C456.052 539.356 459.015 527.987 476.829 529.367C458.835 524.44 460.287 516.817 460.262 497.432Z" fill="#876A96"/>
<path d="M396.674 95.7487C395.192 109.311 393.076 122.293 370.975 122.696C394.02 125.213 390.705 138.035 389.868 154.481C392.444 138.231 395.472 126.727 413.508 128.119C395.209 123.069 396.635 115.399 396.674 95.7487Z" fill="#EBEBEB"/>
<path d="M513.891 248.316C512.673 259.565 510.907 270.315 492.55 270.64C511.657 272.723 508.896 283.353 508.206 296.997C510.347 283.543 512.85 273.99 527.79 275.151C512.684 270.991 513.869 264.645 513.891 248.316Z" fill="#876A96"/>
<path d="M485.992 154.043C484.951 163.572 483.463 172.687 467.901 172.962C484.096 174.735 481.757 183.733 481.221 195.309C483.052 183.89 485.185 175.802 497.886 176.793C484.98 173.259 485.969 167.868 485.992 154.043Z" fill="#E0E0E0"/>
<path d="M298.108 203.957C297.067 213.486 295.579 222.601 280.017 222.876C296.212 224.649 293.873 233.647 293.337 245.223C295.168 233.804 297.301 225.716 310.002 226.707C297.096 223.173 298.085 217.782 298.108 203.957Z" fill="#E0E0E0"/>
<path d="M463.456 329.35C462.414 338.879 460.926 347.994 445.362 348.283C461.56 350.042 459.219 359.054 458.685 370.616C460.514 359.211 462.649 351.11 475.349 352.1C462.421 348.621 463.426 343.232 463.456 329.35Z" fill="#E0E0E0"/>
<path d="M169.681 655.303C166.774 644.855 164.674 634.615 185.714 626.602C162.901 632.789 161.99 622.239 157.573 609.879C160.266 622.689 161.032 632.187 143.367 637.431C162.367 634.818 163.429 640.879 169.681 655.303Z" fill="#455A64"/>
<path d="M185.968 752.957C172.497 753.139 159.541 752.605 156.501 730.938C156.799 753.832 143.841 752.105 127.614 753.227C143.842 753.839 155.485 755.407 156.266 773.258C158.985 754.801 166.727 755.322 185.968 752.957Z" fill="#876A96"/>
<path d="M577.037 641.345C563.396 641.512 550.253 640.978 547.185 619.088C547.469 642.268 534.34 640.525 517.913 641.679C534.355 642.275 546.141 643.891 546.936 661.964C549.74 643.189 557.526 643.678 577.037 641.345Z" fill="#EBEBEB"/>
<path d="M439.736 776.122C428.422 776.271 417.537 775.816 414.999 757.633C415.238 776.851 404.352 775.393 390.725 776.355C404.338 776.857 414.124 778.188 414.775 793.159C417.081 777.662 423.524 778.072 439.736 776.122Z" fill="#876A96"/>
<path d="M529.951 737.048C520.366 737.164 511.138 736.787 508.987 721.372C509.182 737.663 499.967 736.427 488.411 737.293C499.968 737.732 508.254 738.873 508.803 751.6C510.753 738.363 516.225 738.694 529.951 737.048Z" fill="#E0E0E0"/>
<path d="M342.091 689.759C332.506 689.875 323.278 689.498 321.113 674.083C321.321 690.374 312.093 689.138 300.551 690.004C312.093 690.443 320.394 691.584 320.943 704.311C322.836 691.058 328.307 691.405 342.091 689.759Z" fill="#E0E0E0"/>
</g>
<defs>
<clipPath id="clip0_11_11">
<rect width="1194" height="834" fill="white"/>
</clipPath>
</defs>
</svg>
